<?xml version="1.0" encoding="UTF-8"?>
<svg version="1.1" xmlns="http://www.w3.org/2000/svg" width="500" height="500">
<path d="M0 0 C2.91517292 1.07401108 4.77810176 1.77810176 7 4 C7.4965648 9.26358691 6.6586115 11.6023438 4 16 C2.99389227 18.53451181 2.03902979 21.05846286 1.125 23.625 C-0.94887652 29.3099374 -3.21619388 34.81423327 -5.78515625 40.296875 C-7.62212296 44.38427361 -9.17200635 48.57334334 -10.76171875 52.76171875 C-12.72441965 57.89446021 -14.80831163 62.960889 -17 68 C-17.45511963 69.05501709 -17.45511963 69.05501709 -17.91943359 70.13134766 C-18.92852971 72.45004821 -19.96131981 74.75691709 -21 77.0625 C-21.32009033 77.80145508 -21.64018066 78.54041016 -21.9699707 79.30175781 C-23.93424958 83.58223028 -25.44177191 86.1161294 -30 88 C-33.8772289 87.81086688 -36.15082155 86.57565732 -39 84 C-40.01171875 81.5546875 -40.01171875 81.5546875 -40.6875 78.875 C-41.32148911 75.654409 -41.32148911 75.654409 -43 73 C-43.44730469 73.81984375 -43.89460938 74.6396875 -44.35546875 75.484375 C-44.96003906 76.56203125 -45.56460938 77.6396875 -46.1875 78.75 C-46.77917969 79.81734375 -47.37085938 80.8846875 -47.98046875 81.984375 C-50.42874055 85.64020833 -53.0652689 88.03263445 -57 90 C-64.08958838 90.69733656 -64.08958838 90.69733656 -67.9375 87.75 C-69.76034171 85.31954439 -70.67031735 83.96714383 -71 81 C-71.66 81 -72.32 81 -73 81 C-73 81.66 -73 82.32 -73 83 C-73.66 83 -74.32 83 -75 83 C-75.28875 83.598125 -75.5775 84.19625 -75.875 84.8125 C-77 87 -77 87 -79 90 C-79.66 90 -80.32 90 -81 90 C-81 90.66 -81 91.32 -81 92 C-85.87162645 96.15902152 -90.64966144 98 -97 98 C-102.22700824 96.43189753 -105.07215718 94.60089586 -108 90 C-109.11243572 87.69361388 -110.06361918 85.3877711 -111 83 C-111.33773437 83.5053125 -111.67546875 84.010625 -112.0234375 84.53125 C-112.69246094 85.50578125 -112.69246094 85.50578125 -113.375 86.5 C-113.81585938 87.1496875 -114.25671875 87.799375 -114.7109375 88.46875 C-115.13632813 88.9740625 -115.56171875 89.479375 -116 90 C-116.66 90 -117.32 90 -118 90 C-118.26296875 90.5878125 -118.5259375 91.175625 -118.796875 91.78125 C-122.41534196 98.45426699 -129.33711048 103.61777754 -136.3125 106.25 C-143.291361 107.66942936 -148.80326443 107.94337718 -155 104 C-160.76756307 100.15495796 -163.60597743 95.21258692 -165.25 88.625 C-168.67008585 70.51686691 -162.37102594 50.87500186 -152.5625 35.7890625 C-148.43795079 29.93847912 -143.51278619 24.83275801 -137.125 21.5 C-131.16112154 20.54577945 -125.31034418 21.01446088 -120 24 C-120 24.66 -120 25.32 -120 26 C-119.34 26 -118.68 26 -118 26 C-118 26.66 -118 27.32 -118 28 C-117.34 28 -116.68 28 -116 28 C-113.12880271 35.53689289 -113.74674698 40.65980098 -116.61328125 48.0625 C-122.21166814 59.92161814 -131.33796675 69.04504443 -143.40234375 74.1015625 C-146.65764784 75.22745715 -149.56965255 75.77131017 -153 76 C-152.94261809 85.91923712 -152.94261809 85.91923712 -148 94 C-141.91429579 94.70350063 -138.58306751 92.42049659 -133.6796875 89.125 C-129.6453917 85.92579167 -126.89819987 82.21359232 -124 78 C-122.87910189 76.53851153 -121.75429893 75.08000689 -120.625 73.625 C-118.82998118 71.29243544 -117.94877952 69.84633856 -117 67 C-116.34 67 -115.68 67 -115 67 C-115 66.01 -115 65.02 -115 64 C-114.34 64 -113.68 64 -113 64 C-112.85304687 63.3915625 -112.70609375 62.783125 -112.5546875 62.15625 C-110.34414272 53.51733938 -107.21840771 45.30120048 -104 37 C-103.34 37 -102.68 37 -102 37 C-101.89945312 36.44054687 -101.79890625 35.88109375 -101.6953125 35.3046875 C-99.26157004 27.23778835 -92.21276419 20.11481392 -85.09765625 15.86328125 C-79.96503741 13.75097443 -74.37428404 14.43133074 -69.375 16.5 C-68.59125 16.995 -67.8075 17.49 -67 18 C-66.505 17.505 -66.505 17.505 -66 17 C-60.6187193 16.53206255 -60.6187193 16.53206255 -58.32397461 18.26757812 C-55.93387464 21.39502591 -56.67676894 25.26364441 -57 29 C-57.52800134 32.85670541 -58.22566967 36.67352744 -58.9375 40.5 C-62.48963274 58.83545033 -62.48963274 58.83545033 -60 77 C-59.69707031 76.50371094 -59.39414063 76.00742187 -59.08203125 75.49609375 C-50.94008166 62.29360934 -50.94008166 62.29360934 -46 60 C-44.99096404 57.13695549 -44.96129081 54.86037491 -45.36132812 51.87744141 C-45.5164386 50.67566757 -45.5164386 50.67566757 -45.67468262 49.44961548 C-45.79234985 48.592258 -45.91001709 47.73490051 -46.03125 46.8515625 C-46.26694991 45.02344044 -46.50262626 43.19531535 -46.73828125 41.3671875 C-47.1178734 38.49446557 -47.50038097 35.62214976 -47.88427734 32.75 C-48.25295999 29.97224095 -48.61119488 27.19327235 -48.96875 24.4140625 C-49.08641724 23.56075348 -49.20408447 22.70744446 -49.32531738 21.82827759 C-49.8972266 17.36233945 -50.3029525 13.39534951 -49 9 C-46 7 -46 7 -43.5 7.1875 C-40.75663577 8.07909338 -39.82651635 8.82028988 -38 11 C-36.14907328 17.272585 -35.7330353 23.34142575 -35.3515625 29.84765625 C-34.98960078 34.8326324 -34.19252715 39.74974449 -33.4375 44.6875 C-32.35352234 51.83346329 -31.54178429 58.75340348 -32 66 C-29.29524237 64.64762118 -29.12947172 63.33063138 -28.01171875 60.546875 C-27.45049316 59.16218018 -27.45049316 59.16218018 -26.87792969 57.74951172 C-26.48508789 56.75967285 -26.09224609 55.76983398 -25.6875 54.75 C-25.08083496 53.24397217 -25.08083496 53.24397217 -24.46191406 51.70751953 C-21.94879203 45.44893731 -19.50128162 39.16762159 -17.10546875 32.86328125 C-15.58297925 28.91987205 -13.96897446 25.01943517 -12.31640625 21.12890625 C-11.35873212 18.85265408 -10.43250981 16.57416578 -9.52734375 14.27734375 C-9.01840707 13.01815725 -8.50929547 11.75904143 -8 10.5 C-7.54625 9.3553125 -7.0925 8.210625 -6.625 7.03125 C-4.85244849 3.72475969 -3.06375071 2.11150387 0 0 Z M-80.1875 28 C-80.90292969 28.37125 -81.61835938 28.7425 -82.35546875 29.125 C-82.89816406 29.41375 -83.44085938 29.7025 -84 30 C-84 30.66 -84 31.32 -84 32 C-84.66 32 -85.32 32 -86 32 C-86 32.66 -86 33.32 -86 34 C-86.66 34 -87.32 34 -88 34 C-97.56763249 45.92446865 -101.18284779 63.0764037 -100 78 C-99.24138402 80.88009438 -98.25408983 83.28280536 -97 86 C-93.4645693 86.29089339 -93.4645693 86.29089339 -90.296875 84.91796875 C-77.50039014 70.60270917 -71.38185587 49.00649721 -69.765625 30.28515625 C-69.84296875 29.53105469 -69.9203125 28.77695313 -70 28 C-74.18110208 25.21259861 -75.99055796 25.79832549 -80.1875 28 Z M-137 36 C-137 36.66 -137 37.32 -137 38 C-137.66 38 -138.32 38 -139 38 C-139 38.66 -139 39.32 -139 40 C-139.66 40 -140.32 40 -141 40 C-147.46237045 50.39219955 -147.46237045 50.39219955 -150 62 C-145.87248551 61.39301257 -142.6678852 59.96189209 -139 58 C-139 57.34 -139 56.68 -139 56 C-138.34 56 -137.68 56 -137 56 C-137 55.34 -137 54.68 -137 54 C-136.34 54 -135.68 54 -135 54 C-129.88722195 47.6828262 -127.13313587 42.12128777 -127 34 C-131.23286647 32.61051557 -133.17344289 33.82581983 -137 36 Z " fill="#161717" transform="translate(305,192)"/>
<path d="M0 0 C3.0070497 2.36843915 4.5969551 3.80232573 5.7109375 7.5546875 C6.21513043 16.47997518 1.23120964 26.19303482 -3.7734375 33.36328125 C-4.21300781 33.83894531 -4.65257812 34.31460938 -5.10546875 34.8046875 C-5.76546875 34.8046875 -6.42546875 34.8046875 -7.10546875 34.8046875 C-7.36328125 35.39765625 -7.62109375 35.990625 -7.88671875 36.6015625 C-9.2031677 38.98129715 -10.53127657 40.31447542 -12.60546875 42.0546875 C-13.21390625 42.57546875 -13.82234375 43.09625 -14.44921875 43.6328125 C-16.10546875 44.8046875 -16.10546875 44.8046875 -18.10546875 44.8046875 C-18.10546875 45.4646875 -18.10546875 46.1246875 -18.10546875 46.8046875 C-20.20565889 48.27777861 -22.28314604 49.61778385 -24.48046875 50.9296875 C-25.08375 51.30222656 -25.68703125 51.67476562 -26.30859375 52.05859375 C-30.83512191 54.8046875 -30.83512191 54.8046875 -33.10546875 54.8046875 C-32.9303422 62.68656643 -32.9303422 62.68656643 -30.48046875 70.0546875 C-27.14357995 72.51344767 -25.21180305 72.17384281 -21.10546875 71.8046875 C-18.21140433 70.7896313 -15.55893594 69.43218728 -12.85546875 67.9921875 C-12.1490625 67.63576172 -11.44265625 67.27933594 -10.71484375 66.91210938 C-6.83270153 64.94067845 -6.83270153 64.94067845 -3.50878906 62.17700195 C-2.10546875 60.8046875 -2.10546875 60.8046875 -0.10546875 60.8046875 C-0.10546875 60.1446875 -0.10546875 59.4846875 -0.10546875 58.8046875 C0.55453125 58.8046875 1.21453125 58.8046875 1.89453125 58.8046875 C1.89453125 58.1446875 1.89453125 57.4846875 1.89453125 56.8046875 C2.55453125 56.8046875 3.21453125 56.8046875 3.89453125 56.8046875 C3.89453125 56.1446875 3.89453125 55.4846875 3.89453125 54.8046875 C4.55453125 54.8046875 5.21453125 54.8046875 5.89453125 54.8046875 C6.30058594 53.91910156 6.30058594 53.91910156 6.71484375 53.015625 C7.87841685 50.83488865 9.11567296 49.25493007 10.76953125 47.4296875 C12.82923426 45.12122809 14.29380134 43.13091922 15.89453125 40.4296875 C17.89453125 37.8046875 17.89453125 37.8046875 20.95703125 36.8671875 C23.89453125 36.8046875 23.89453125 36.8046875 26.89453125 37.8046875 C28.89453125 40.8046875 28.89453125 40.8046875 28.58203125 43.3046875 C28.07354453 45.15373012 27.50095663 46.98541137 26.89453125 48.8046875 C26.23453125 48.8046875 25.57453125 48.8046875 24.89453125 48.8046875 C24.89453125 49.4646875 24.89453125 50.1246875 24.89453125 50.8046875 C24.23453125 50.8046875 23.57453125 50.8046875 22.89453125 50.8046875 C22.67023438 51.50851563 22.4459375 52.21234375 22.21484375 52.9375 C20.61228776 56.4176068 18.37530746 58.93220213 15.76953125 61.6796875 C15.27380615 62.20780029 14.77808105 62.73591309 14.26733398 63.2800293 C4.56064211 73.51106778 -7.1668037 83.79631322 -21.96777344 84.23583984 C-32.53517756 84.26816367 -32.53517756 84.26816367 -36.35546875 81.6796875 C-42.10806655 75.66560798 -44.96202545 69.99936446 -46.10546875 61.8046875 C-46.44320312 62.31 -46.7809375 62.8153125 -47.12890625 63.3359375 C-47.79792969 64.31046875 -47.79792969 64.31046875 -48.48046875 65.3046875 C-48.92132813 65.954375 -49.3621875 66.6040625 -49.81640625 67.2734375 C-50.24179687 67.77875 -50.6671875 68.2840625 -51.10546875 68.8046875 C-51.76546875 68.8046875 -52.42546875 68.8046875 -53.10546875 68.8046875 C-53.33878906 69.371875 -53.57210937 69.9390625 -53.8125 70.5234375 C-58.48785752 78.77240666 -68.33918277 84.76173742 -77.10546875 87.8046875 C-79.82421875 88.0703125 -79.82421875 88.0703125 -82.60546875 88.0546875 C-83.52328125 88.05984375 -84.44109375 88.065 -85.38671875 88.0703125 C-88.28329695 87.78731348 -90.46922528 87.00818995 -93.10546875 85.8046875 C-93.10546875 85.1446875 -93.10546875 84.4846875 -93.10546875 83.8046875 C-93.70101563 83.54042969 -94.2965625 83.27617187 -94.91015625 83.00390625 C-99.47586662 80.50982603 -102.37981192 76.42092317 -104.48046875 71.7421875 C-107.52814232 52.54184399 -101.72259959 34.9697485 -91.27734375 19.01171875 C-87.88142078 14.44557908 -83.95956845 9.86853756 -79.10546875 6.8046875 C-78.11546875 6.8046875 -77.12546875 6.8046875 -76.10546875 6.8046875 C-76.10546875 6.1446875 -76.10546875 5.4846875 -76.10546875 4.8046875 C-70.59564601 3.42723182 -64.56501784 2.9848378 -59.10546875 4.8046875 C-59.10546875 5.4646875 -59.10546875 6.1246875 -59.10546875 6.8046875 C-58.52796875 7.0109375 -57.95046875 7.2171875 -57.35546875 7.4296875 C-54.09075666 9.42478934 -52.84132253 11.39497472 -51.10546875 14.8046875 C-49.51490576 23.12333194 -52.77840028 30.24189472 -57.24609375 37.08203125 C-64.77415066 47.67814365 -74.39830449 55.7536398 -87.51171875 58.265625 C-89.36924236 58.50762632 -91.2373654 58.66630947 -93.10546875 58.8046875 C-92.87612466 60.72393537 -92.62112532 62.6401281 -92.35546875 64.5546875 C-92.21625 65.62203125 -92.07703125 66.689375 -91.93359375 67.7890625 C-90.98096299 71.2580764 -89.9312618 72.62300904 -87.10546875 74.8046875 C-81.27962808 75.70097068 -76.86651447 74.06094675 -72.10546875 70.8046875 C-65.24321631 65.51269366 -65.24321631 65.51269366 -60.10546875 58.8046875 C-59.44546875 58.8046875 -58.78546875 58.8046875 -58.10546875 58.8046875 C-57.81671875 58.0415625 -57.52796875 57.2784375 -57.23046875 56.4921875 C-56.10546875 53.8046875 -56.10546875 53.8046875 -54.10546875 50.8046875 C-53.44546875 50.8046875 -52.78546875 50.8046875 -52.10546875 50.8046875 C-51.83734375 50.08410156 -51.56921875 49.36351562 -51.29296875 48.62109375 C-50.10533265 45.80436472 -48.71147636 43.33990481 -47.10546875 40.7421875 C-40.67007816 30.30076626 -39.83844825 20.38194909 -39.62280273 8.26733398 C-39.58521851 7.07926147 -39.58521851 7.07926147 -39.546875 5.8671875 C-39.53342041 5.15691406 -39.51996582 4.44664062 -39.50610352 3.71484375 C-38.98728899 1.24122714 -38.09224619 0.32811024 -36.10546875 -1.1953125 C-33.41796875 -1.3828125 -33.41796875 -1.3828125 -31.10546875 -1.1953125 C-31.10546875 -0.5353125 -31.10546875 0.1246875 -31.10546875 0.8046875 C-30.46609375 0.9696875 -29.82671875 1.1346875 -29.16796875 1.3046875 C-27.10546875 2.8046875 -27.10546875 2.8046875 -26.6171875 4.71875 C-26.37787095 6.74043905 -26.23653847 8.77310689 -26.10546875 10.8046875 C-25.47898437 10.0828125 -24.8525 9.3609375 -24.20703125 8.6171875 C-23.38976562 7.6890625 -22.5725 6.7609375 -21.73046875 5.8046875 C-20.91835938 4.8765625 -20.10625 3.9484375 -19.26953125 2.9921875 C-18.55539062 2.2703125 -17.84125 1.5484375 -17.10546875 0.8046875 C-16.44546875 0.8046875 -15.78546875 0.8046875 -15.10546875 0.8046875 C-15.10546875 0.1446875 -15.10546875 -0.5153125 -15.10546875 -1.1953125 C-9.92893583 -2.70270019 -4.77949106 -2.71340309 0 0 Z M-9.10546875 10.8046875 C-11.41546875 12.1246875 -13.72546875 13.4446875 -16.10546875 14.8046875 C-16.10546875 15.4646875 -16.10546875 16.1246875 -16.10546875 16.8046875 C-16.76546875 16.8046875 -17.42546875 16.8046875 -18.10546875 16.8046875 C-18.10546875 17.4646875 -18.10546875 18.1246875 -18.10546875 18.8046875 C-18.76546875 18.8046875 -19.42546875 18.8046875 -20.10546875 18.8046875 C-25.03567028 24.49520926 -28.26098754 30.53216158 -30.10546875 37.8046875 C-25.08555349 36.23596398 -20.95011752 33.33830851 -17.10546875 29.8046875 C-15.5609568 27.13321014 -15.5609568 27.13321014 -15.10546875 24.8046875 C-14.44546875 24.8046875 -13.78546875 24.8046875 -13.10546875 24.8046875 C-13.10546875 23.8146875 -13.10546875 22.8246875 -13.10546875 21.8046875 C-12.44546875 21.8046875 -11.78546875 21.8046875 -11.10546875 21.8046875 C-10.57554183 20.34963392 -10.05678985 18.89050623 -9.54296875 17.4296875 C-9.25292969 16.61757812 -8.96289062 15.80546875 -8.6640625 14.96875 C-7.84573847 12.77701001 -7.84573847 12.77701001 -9.10546875 10.8046875 Z M-81.09765625 25.14453125 C-85.46692211 31.07960698 -90.10546875 38.22202595 -90.10546875 45.8046875 C-87.25996863 45.14458274 -84.58220876 44.28743784 -81.85546875 43.2421875 C-81.1490625 42.97277344 -80.44265625 42.70335937 -79.71484375 42.42578125 C-79.18375 42.22082031 -78.65265625 42.01585937 -78.10546875 41.8046875 C-78.10546875 41.1446875 -78.10546875 40.4846875 -78.10546875 39.8046875 C-76.98011719 39.43730469 -76.98011719 39.43730469 -75.83203125 39.0625 C-70.1128339 36.42413102 -66.46567552 30.24949833 -64.10546875 24.5546875 C-63.15767388 21.00045674 -62.92717585 19.23244867 -64.10546875 15.8046875 C-71.57208666 14.46452531 -76.58268367 19.84165169 -81.09765625 25.14453125 Z " fill="#181818" transform="translate(410.10546875,187.1953125)"/>
<path d="M0 0 C5.76290914 4.63998935 8.56619325 9.59701724 10.875 16.5234375 C12.19984011 29.18543396 7.75728699 40.66087151 -0.125 50.5234375 C-0.785 50.5234375 -1.445 50.5234375 -2.125 50.5234375 C-2.125 51.1834375 -2.125 51.8434375 -2.125 52.5234375 C-2.785 52.5234375 -3.445 52.5234375 -4.125 52.5234375 C-4.125 53.1834375 -4.125 53.8434375 -4.125 54.5234375 C-4.785 54.5234375 -5.445 54.5234375 -6.125 54.5234375 C-6.33125 55.0803125 -6.5375 55.6371875 -6.75 56.2109375 C-8.67500774 59.44845052 -11.16350902 61.20574891 -14.125 63.5234375 C-13.61710937 63.85214844 -13.10921875 64.18085938 -12.5859375 64.51953125 C-5.47775461 69.4313655 0.41028829 76.51811948 2.5 85.0859375 C3.38202581 93.17117411 3.14832374 100.69795771 0.875 108.5234375 C0.524375 109.7609375 0.17375 110.9984375 -0.1875 112.2734375 C-1.78805872 116.37486923 -4.21664957 119.90584276 -6.6875 123.5234375 C-7.08783447 124.1122168 -7.48816895 124.70099609 -7.90063477 125.30761719 C-8.92013937 126.7534989 -10.01698997 128.1442068 -11.125 129.5234375 C-11.785 129.5234375 -12.445 129.5234375 -13.125 129.5234375 C-13.3621875 130.10609375 -13.599375 130.68875 -13.84375 131.2890625 C-15.3976806 133.99896587 -17.14429431 135.38874552 -19.625 137.2734375 C-20.81609375 138.19382812 -20.81609375 138.19382812 -22.03125 139.1328125 C-24.125 140.5234375 -24.125 140.5234375 -26.125 140.5234375 C-26.125 141.1834375 -26.125 141.8434375 -26.125 142.5234375 C-32.38622611 146.10128099 -38.65730781 147.80151406 -45.63671875 149.3984375 C-49.26589272 150.56887659 -51.26313703 152.06968334 -54.125 154.5234375 C-58.23702436 154.63164867 -61.45794901 152.46277274 -64.6640625 150.0546875 C-66.125 148.5234375 -66.125 148.5234375 -67.25 144.8984375 C-67.125 141.5234375 -67.125 141.5234375 -65.9375 139.6484375 C-63.99805265 138.44464259 -62.33531666 138.02682225 -60.125 137.5234375 C-60.08761719 136.94078125 -60.05023438 136.358125 -60.01171875 135.7578125 C-59.54600089 129.95003684 -58.48945196 124.53995936 -57.01171875 118.91015625 C-55.9990517 115.04239268 -55.04879847 111.16325431 -54.125 107.2734375 C-53.95597168 106.56171387 -53.78694336 105.84999023 -53.61279297 105.11669922 C-52.25256234 99.284334 -51.11002177 93.42294686 -50.07617188 87.52441406 C-49.22324669 82.71993089 -49.22324669 82.71993089 -48.125 80.5234375 C-48.93324219 80.9565625 -49.74148437 81.3896875 -50.57421875 81.8359375 C-51.64285156 82.3928125 -52.71148437 82.9496875 -53.8125 83.5234375 C-54.86824219 84.0803125 -55.92398438 84.6371875 -57.01171875 85.2109375 C-60.0709506 86.5006513 -61.86200713 86.89684337 -65.125 86.5234375 C-66.9375 85.4609375 -66.9375 85.4609375 -68.125 83.5234375 C-68.3125 79.8359375 -68.3125 79.8359375 -68.125 76.5234375 C-67.465 76.5234375 -66.805 76.5234375 -66.125 76.5234375 C-66.125 75.8634375 -66.125 75.2034375 -66.125 74.5234375 C-63.37706182 73.20646713 -60.62682815 71.89473381 -57.875 70.5859375 C-57.09769531 70.21275391 -56.32039063 69.83957031 -55.51953125 69.45507812 C-54.38837891 68.91850586 -54.38837891 68.91850586 -53.234375 68.37109375 C-52.54311523 68.04117432 -51.85185547 67.71125488 -51.13964844 67.37133789 C-49.14827424 66.53323287 -47.22236284 66.02370003 -45.125 65.5234375 C-44.98132492 64.92653107 -44.83764984 64.32962463 -44.68962097 63.71463013 C-43.19486501 57.51474272 -41.68369786 51.31902374 -40.1628418 45.12548828 C-39.5970757 42.81206861 -39.03553342 40.49761179 -38.47827148 38.18212891 C-37.67753839 34.85819685 -36.86179654 31.53826431 -36.04296875 28.21875 C-35.79596725 27.17913116 -35.54896576 26.13951233 -35.29447937 25.06838989 C-35.05445694 24.10754486 -34.81443451 23.14669983 -34.56713867 22.15673828 C-34.25736336 20.88432785 -34.25736336 20.88432785 -33.94132996 19.58621216 C-33.125 17.5234375 -33.125 17.5234375 -30.125 15.5234375 C-26.9375 15.8984375 -26.9375 15.8984375 -24.125 16.5234375 C-24.125 17.1834375 -24.125 17.8434375 -24.125 18.5234375 C-23.465 18.5234375 -22.805 18.5234375 -22.125 18.5234375 C-21.81038916 24.20973704 -21.9084159 28.73108603 -24.19140625 34.05078125 C-25.50776489 37.53720392 -26.40345106 41.09994793 -27.3125 44.7109375 C-27.49135742 45.40074707 -27.67021484 46.09055664 -27.85449219 46.80126953 C-28.76087641 50.44712497 -29.33665893 53.76466685 -29.125 57.5234375 C-27.145 56.8634375 -25.165 56.2034375 -23.125 55.5234375 C-23.125 54.8634375 -23.125 54.2034375 -23.125 53.5234375 C-21.65625 52.3671875 -21.65625 52.3671875 -19.625 51.0234375 C-10.75886096 44.56247447 -4.4286183 35.288009 -2.125 24.5234375 C-1.73940085 19.31784891 -2.08005279 15.84529805 -5.125 11.5234375 C-11.91968009 7.60342975 -18.40125716 7.89535663 -25.8046875 9.71484375 C-38.45969831 14.12492327 -47.63928275 25.92224527 -53.29541016 37.58398438 C-55.61496649 43.00674939 -56.90050658 48.77154079 -58.125 54.5234375 C-63.890625 54.7109375 -63.890625 54.7109375 -66 53.0234375 C-69.16268259 45.99525396 -66.56930814 37.44897722 -64.125 30.5234375 C-62.07043673 26.33821602 -59.89176748 22.28357451 -57.125 18.5234375 C-56.465 18.5234375 -55.805 18.5234375 -55.125 18.5234375 C-54.815625 17.9046875 -54.50625 17.2859375 -54.1875 16.6484375 C-53.5 15.2734375 -52.8125 13.8984375 -52.125 12.5234375 C-51.465 12.5234375 -50.805 12.5234375 -50.125 12.5234375 C-50.125 11.8634375 -50.125 11.2034375 -50.125 10.5234375 C-48.20498552 8.79602636 -46.29683793 7.21338254 -44.25 5.6484375 C-43.66154297 5.19734619 -43.07308594 4.74625488 -42.46679688 4.28149414 C-30.56194678 -4.5681432 -13.0249775 -9.05044393 0 0 Z M-34.125 73.5234375 C-35.47612291 78.85240053 -36.80466461 84.1867797 -38.125 89.5234375 C-38.39828125 90.62768066 -38.6715625 91.73192383 -38.953125 92.86962891 C-45.29079153 114.914413 -45.29079153 114.914413 -48.125 137.5234375 C-33.5516065 134.09636095 -22.77249554 125.19923657 -14.3671875 112.96484375 C-9.82963431 105.41321537 -7.11064686 97.32079886 -8.66015625 88.46484375 C-10.61300276 82.23433345 -13.50374353 77.9405354 -19.125 74.5234375 C-22.41019475 73.42837258 -24.86163415 73.42383142 -28.3125 73.4609375 C-29.39917969 73.46996094 -30.48585938 73.47898437 -31.60546875 73.48828125 C-32.43691406 73.49988281 -33.26835938 73.51148438 -34.125 73.5234375 Z " fill="#181818" transform="translate(131.125,171.4765625)"/>
<path d="M0 0 C1.03695007 -0.00508575 2.07390015 -0.01017151 3.14227295 -0.01541138 C6.11191374 -0.02715945 9.08113652 -0.02409549 12.05078125 -0.015625 C13.37993813 -0.02156929 13.37993813 -0.02156929 14.73594666 -0.02763367 C19.42592829 0.00755865 23.3168673 0.32999294 27.6875 2.25 C29.80456884 4.82730119 29.70030437 6.08674422 29.4375 9.4375 C29.06625 10.8296875 29.06625 10.8296875 28.6875 12.25 C26.37395902 13.40677049 25.10531151 13.35980677 22.53369141 13.33178711 C21.23467896 13.32213425 21.23467896 13.32213425 19.90942383 13.31228638 C18.96220459 13.30075531 18.01498535 13.28922424 17.0390625 13.27734375 C14.99821377 13.26283466 12.95736056 13.24894491 10.91650391 13.2355957 C9.30065399 13.22310287 9.30065399 13.22310287 7.65216064 13.21035767 C-23.57949502 12.9965986 -54.30962528 14.31040819 -85.3125 18.25 C-87.56835938 18.53320312 -87.56835938 18.53320312 -89.82421875 18.81640625 C-92.35713098 19.13648571 -94.88971137 19.45920753 -97.421875 19.78515625 C-102.1085425 20.3451095 -106.80182907 20.79893363 -111.5 21.25 C-124.28153134 21.87036159 -124.28153134 21.87036159 -136.3125 25.25 C-137.59125 25.37375 -138.87 25.4975 -140.1875 25.625 C-143.84574083 25.99663081 -147.25843225 26.68508126 -150.8125 27.625 C-156.44177169 29.10411986 -162.08019221 30.15243177 -167.82226562 31.07177734 C-172.99365614 31.92743012 -178.03539178 33.13526285 -183.11279297 34.43359375 C-186.33660609 35.25615068 -189.56703877 36.04558919 -192.80078125 36.828125 C-206.92725703 40.27671658 -220.8587966 44.09000314 -234.73193359 48.44335938 C-238.75027406 49.69942341 -242.77847822 50.92037457 -246.8125 52.125 C-247.47660889 52.32818848 -248.14071777 52.53137695 -248.82495117 52.74072266 C-252.96603474 53.97391887 -256.99725307 54.93270243 -261.3125 55.25 C-263.8125 53.125 -263.8125 53.125 -265.3125 50.25 C-265.24570853 47.4447583 -264.86159978 45.95650838 -263.140625 43.7421875 C-260.63847259 41.69983233 -258.20255592 40.98759987 -255.125 40 C-254.47845459 39.79238037 -253.83190918 39.58476074 -253.16577148 39.37084961 C-250.88592783 38.648203 -248.60041781 37.94665914 -246.3125 37.25 C-245.43271484 36.9813916 -244.55292969 36.7127832 -243.64648438 36.43603516 C-198.0290084 22.61327606 -150.15319198 11.82883014 -102.73535156 6.52197266 C-100.32941444 6.2518987 -97.9265459 5.96205544 -95.5234375 5.66796875 C-87.31810681 4.68467463 -79.13634767 3.96584688 -70.87939453 3.59130859 C-68.20472056 3.46350624 -65.6202548 3.31399536 -62.99487305 2.76806641 C-57.23074303 1.65479764 -51.29181386 1.53399572 -45.4375 1.1875 C-44.69505035 1.14330933 -43.95260071 1.09911865 -43.18765259 1.05358887 C-28.79564947 0.22670052 -14.41345422 0.02908463 0 0 Z " fill="#1B1B1B" transform="translate(384.3125,284.75)"/>
<path d="M0 0 C1.5 2.6875 1.5 2.6875 2 5 C2.66 5 3.32 5 4 5 C3.443125 5.86625 3.443125 5.86625 2.875 6.75 C2.58625 7.4925 2.2975 8.235 2 9 C2.495 9.85078125 2.495 9.85078125 3 10.71875 C4.42757175 13.97539805 3.74806014 16.28855481 3.125 19.75 C2.92132813 20.92046875 2.71765625 22.0909375 2.5078125 23.296875 C2.34023437 24.18890625 2.17265625 25.0809375 2 26 C1.67 26 1.34 26 1 26 C0.91363281 25.33613281 0.82726562 24.67226562 0.73828125 23.98828125 C-0.18489155 18.1866907 -1.04673035 14.65598474 -6 11 C-12.01310632 8.3943206 -19.98631424 9.90432163 -26 12 C-38.44533706 18.35185888 -48.13931438 29.94592216 -52.73193359 43.09570312 C-54.03447886 47.35010154 -55.07342643 51.64754258 -56 56 C-61.765625 56.1875 -61.765625 56.1875 -63.875 54.5 C-67.03768259 47.47181646 -64.44430814 38.92553972 -62 32 C-59.94543673 27.81477852 -57.76676748 23.76013701 -55 20 C-54.34 20 -53.68 20 -53 20 C-52.690625 19.38125 -52.38125 18.7625 -52.0625 18.125 C-51.375 16.75 -50.6875 15.375 -50 14 C-49.34 14 -48.68 14 -48 14 C-48 13.34 -48 12.68 -48 12 C-46.07998552 10.27258886 -44.17183793 8.68994504 -42.125 7.125 C-41.53654297 6.67390869 -40.94808594 6.22281738 -40.34179688 5.75805664 C-29.06678733 -2.6233799 -13.03734989 -7.00153975 0 0 Z " fill="#191A19" transform="translate(129,170)"/>
<path d="M0 0 C2.375 1.3125 2.375 1.3125 4.375 3.3125 C4.87155797 8.57601453 4.03563958 10.9155745 1.375 15.3125 C0.34577475 17.86772322 -0.63091814 20.41043516 -1.5625 23 C-2.08377479 24.42088895 -2.60591079 25.84146224 -3.12890625 27.26171875 C-3.38172363 27.95056152 -3.63454102 28.6394043 -3.89501953 29.34912109 C-5.38970476 33.36927447 -7.00264823 37.34250979 -8.625 41.3125 C-9.30369141 40.34957031 -9.30369141 40.34957031 -9.99609375 39.3671875 C-11.45467325 37.19056389 -11.45467325 37.19056389 -13.6875 36.4375 C-14.326875 36.39625 -14.96625 36.355 -15.625 36.3125 C-16.285 36.9725 -16.945 37.6325 -17.625 38.3125 C-18.12 38.8075 -18.12 38.8075 -18.625 39.3125 C-18.3465625 40.2715625 -18.3465625 40.2715625 -18.0625 41.25 C-17.918125 41.930625 -17.77375 42.61125 -17.625 43.3125 C-18.285 43.9725 -18.945 44.6325 -19.625 45.3125 C-21.75 44.9375 -21.75 44.9375 -23.625 44.3125 C-21.85880956 37.23734889 -19.01498818 30.60920147 -16.25 23.875 C-15.76789063 22.68583984 -15.28578125 21.49667969 -14.7890625 20.27148438 C-5.87597197 -1.53894504 -5.87597197 -1.53894504 0 0 Z " fill="#1C1E1D" transform="translate(307.625,192.6875)"/>
<path d="M0 0 C1.31097656 0.01353516 1.31097656 0.01353516 2.6484375 0.02734375 C3.30070312 0.03894531 3.95296875 0.05054688 4.625 0.0625 C5.12 1.0525 5.12 1.0525 5.625 2.0625 C6.615 1.7325 7.605 1.4025 8.625 1.0625 C10.6875 2.75 10.6875 2.75 12.625 5.0625 C12.5 7.75 12.5 7.75 11.625 10.0625 C9.625 11.0625 9.625 11.0625 5.75 11.4375 C1.92128849 11.81238187 -1.60441071 12.60587352 -5.3125 13.625 C-10.18085638 14.91698688 -14.4913338 15.31052231 -19.51171875 15.0703125 C-20.43404297 15.06644531 -20.43404297 15.06644531 -21.375 15.0625 C-21.705 15.3925 -22.035 15.7225 -22.375 16.0625 C-24.37458364 16.10330783 -26.37545254 16.10504356 -28.375 16.0625 C-29.2265656 12.73365267 -29.64208718 10.73225677 -28.3515625 7.49609375 C-25.72635736 4.26387478 -22.96895956 3.66288575 -19.0625 2.8125 C-18.41087891 2.65265625 -17.75925781 2.4928125 -17.08789062 2.328125 C-11.37318693 0.95522321 -5.88457998 -0.07952135 0 0 Z " fill="#181919" transform="translate(238.375,298.9375)"/>
<path d="M0 0 C2 4 2 4 4 8 C5.65 8 7.3 8 9 8 C8.01 8.33 7.02 8.66 6 9 C6.53625 9.7425 7.0725 10.485 7.625 11.25 C8.07875 12.1575 8.5325 13.065 9 14 C8.1875 16.3125 8.1875 16.3125 7 18 C6.34 18 5.68 18 5 18 C4.566875 18.8971875 4.566875 18.8971875 4.125 19.8125 C3 22 3 22 1 25 C0.34 25 -0.32 25 -1 25 C-1 25.66 -1 26.32 -1 27 C-5.87162645 31.15902152 -10.64966144 33 -17 33 C-23.22121564 31.13363531 -26.02495831 28.35757087 -29.25 22.875 C-30 21 -30 21 -30 18 C-29.34 18 -28.68 18 -28 18 C-28 18.99 -28 19.98 -28 21 C-24.535 20.505 -24.535 20.505 -21 20 C-21.33 21.98 -21.66 23.96 -22 26 C-20.02 26.99 -18.04 27.98 -16 29 C-15.01 26.69 -14.02 24.38 -13 22 C-14.32 21.67 -15.64 21.34 -17 21 C-16.13375 20.835 -15.2675 20.67 -14.375 20.5 C-6.28265407 16.90340181 -3.21429177 7.7370563 0 0 Z " fill="#1A1A1A" transform="translate(225,257)"/>
<path d="M0 0 C0 0.66 0 1.32 0 2 C0.598125 2.226875 1.19625 2.45375 1.8125 2.6875 C4.73627001 4.44176201 5.63847463 5.86849164 7 9 C7.44662483 14.5381479 6.74761733 18.75714802 5 24 C2.69 24.33 0.38 24.66 -2 25 C-2.33 25.99 -2.66 26.98 -3 28 C-3.99 27.67 -4.98 27.34 -6 27 C-6.12462322 21.26733196 -5.6416966 15.69505736 -5 10 C-11.7876036 8.56666158 -11.7876036 8.56666158 -18 11 C-21 7.375 -21 7.375 -21 4 C-20.34 4 -19.68 4 -19 4 C-19 3.34 -19 2.68 -19 2 C-18.34 2 -17.68 2 -17 2 C-17 1.34 -17 0.68 -17 0 C-11.49017726 -1.37745568 -5.45954909 -1.8198497 0 0 Z " fill="#0A0A0A" transform="translate(351,192)"/>
<path d="M0 0 C0.33 0 0.66 0 1 0 C1 1.98 1 3.96 1 6 C2.32 5.34 3.64 4.68 5 4 C5.99 4.66 6.98 5.32 8 6 C4.86501708 7.85776765 2.62528568 8.20140476 -1 8 C-1 8.66 -1 9.32 -1 10 C-0.34 10.33 0.32 10.66 1 11 C1.33 11.99 1.66 12.98 2 14 C2.99 14 3.98 14 5 14 C6 17 6 17 6 20 C4.125 23.1875 4.125 23.1875 2 26 C1.34 26 0.68 26 0 26 C0 26.66 0 27.32 0 28 C-0.66 28 -1.32 28 -2 28 C-2 28.66 -2 29.32 -2 30 C-2.66 30 -3.32 30 -4 30 C-4.309375 30.8353125 -4.309375 30.8353125 -4.625 31.6875 C-6.55000774 34.92501302 -9.03850902 36.68231141 -12 39 C-12.495 37.515 -12.495 37.515 -13 36 C-13.99 35.67 -14.98 35.34 -16 35 C-15.34 34.34 -14.68 33.68 -14 33 C-13.60235737 31.01178687 -13.26224651 29.01055661 -13 27 C-14.98 27.66 -16.96 28.32 -19 29 C-18.26910156 28.28328125 -17.53820312 27.5665625 -16.78515625 26.828125 C-8.97041066 18.89281532 -2.55641503 10.98766846 0 0 Z " fill="#1B1D1B" transform="translate(129,196)"/>
<path d="M0 0 C2.74403104 0.89181009 3.67029887 1.63500444 5.5 3.8125 C7.78120164 11.13635791 8.65459984 19.19996887 7.5 26.8125 C5.4765625 28.7265625 5.4765625 28.7265625 3.5 29.8125 C2.51 29.1525 1.52 28.4925 0.5 27.8125 C-0.82 29.4625 -2.14 31.1125 -3.5 32.8125 C-4.03492103 28.77256831 -4.55043085 24.7303866 -5.0625 20.6875 C-5.21396484 19.54539063 -5.36542969 18.40328125 -5.52148438 17.2265625 C-5.66005859 16.11796875 -5.79863281 15.009375 -5.94140625 13.8671875 C-6.13778687 12.34327393 -6.13778687 12.34327393 -6.33813477 10.78857422 C-6.51306345 7.57231375 -6.31979432 4.92932531 -5.5 1.8125 C-2.5 -0.1875 -2.5 -0.1875 0 0 Z " fill="#1B1C1C" transform="translate(261.5,199.1875)"/>
<path d="M0 0 C0.66 0.33 1.32 0.66 2 1 C2 1.66 2 2.32 2 3 C2.66 3 3.32 3 4 3 C4 3.66 4 4.32 4 5 C4.66 5 5.32 5 6 5 C9.3193976 13.7134187 7.64534098 19.68714472 4 28 C2.78174021 30.15253335 1.49583778 32.02335722 0 34 C-0.66 32.68 -1.32 31.36 -2 30 C-1.01 29.01 -0.02 28.02 1 27 C0.34 26.67 -0.32 26.34 -1 26 C-0.79375 24.783125 -0.5875 23.56625 -0.375 22.3125 C0.09963844 18.65193227 -0.23418616 16.32388488 -2 13 C-2.66 13 -3.32 13 -4 13 C-4.33 14.98 -4.66 16.96 -5 19 C-5.97608217 16.07175348 -6.08226668 14.04386724 -6 11 C-8.31 11.33 -10.62 11.66 -13 12 C-13 11.01 -13 10.02 -13 9 C-12.34 9 -11.68 9 -11 9 C-11 8.01 -11 7.02 -11 6 C-10.34 6 -9.68 6 -9 6 C-9 4.02 -9 2.04 -9 0 C-5.49142603 -1.16952466 -3.57280503 -0.76017128 0 0 Z " fill="#222222" transform="translate(183,215)"/>
<path d="M0 0 C2 3 2 3 1.6875 5.5 C1.17901328 7.34904262 0.60642538 9.18072387 0 11 C-0.66 11 -1.32 11 -2 11 C-2 11.66 -2 12.32 -2 13 C-2.66 13 -3.32 13 -4 13 C-4.23460937 13.71542969 -4.46921875 14.43085938 -4.7109375 15.16796875 C-6.22371559 18.49149637 -8.13808667 20.64795001 -10.625 23.3125 C-11.44226563 24.19550781 -12.25953125 25.07851562 -13.1015625 25.98828125 C-14.04128906 26.98408203 -14.04128906 26.98408203 -15 28 C-15.33 27.01 -15.66 26.02 -16 25 C-15.01 24.67 -14.02 24.34 -13 24 C-13 22.02 -13 20.04 -13 18 C-12.34 18 -11.68 18 -11 18 C-11 16.02 -11 14.04 -11 12 C-11.33 13.32 -11.66 14.64 -12 16 C-12.66 16 -13.32 16 -14 16 C-14.66 15.34 -15.32 14.68 -16 14 C-17.175625 15.2375 -17.175625 15.2375 -18.375 16.5 C-21 19 -21 19 -23 19 C-23 18.34 -23 17.68 -23 17 C-22.34 17 -21.68 17 -21 17 C-20.72929687 16.40960938 -20.45859375 15.81921875 -20.1796875 15.2109375 C-19.0161144 13.03020115 -17.77885829 11.45024257 -16.125 9.625 C-14.136879 7.3805033 -12.39691715 5.16985534 -10.8125 2.625 C-7.78029308 -1.76647209 -4.8189998 -1.23038293 0 0 Z " fill="#1D1D1D" transform="translate(437,225)"/>
<path d="M0 0 C0.66 0.33 1.32 0.66 2 1 C1.34 2.65 0.68 4.3 0 6 C0.66 6 1.32 6 2 6 C2.495 5.505 2.99 5.01 3.5 4.5 C3.995 4.005 4.49 3.51 5 3 C5.66 3 6.32 3 7 3 C7.99 4.98 8.98 6.96 10 9 C1.83958246 15.92062621 -4.29166134 18.43707505 -15 18 C-14.34 17.67 -13.68 17.34 -13 17 C-13 15.35 -13 13.7 -13 12 C-12.34 12 -11.68 12 -11 12 C-11.33 10.02 -11.66 8.04 -12 6 C-10.7625 5.566875 -9.525 5.13375 -8.25 4.6875 C-5.08403441 3.50868303 -2.56878575 2.24768753 0 0 Z " fill="#282828" transform="translate(171,281)"/>
<path d="M0 0 C0.33 0.66 0.66 1.32 1 2 C0.34 2 -0.32 2 -1 2 C-0.67 3.32 -0.34 4.64 0 6 C2.31 6.66 4.62 7.32 7 8 C6.41571621 11.20660508 5.49190329 12.84736899 3.25 15.1875 C-0.25199247 19.07860274 -2.62213449 23.3600058 -5 28 C-5.33 27.01 -5.66 26.02 -6 25 C-6.66 24.34 -7.32 23.68 -8 23 C-7.34 23 -6.68 23 -6 23 C-6 22.34 -6 21.68 -6 21 C-6.66 21 -7.32 21 -8 21 C-8 20.34 -8 19.68 -8 19 C-9.98 19 -11.96 19 -14 19 C-12.66749209 15.4124787 -11.169283 12.1635377 -9 9 C-8.34 9 -7.68 9 -7 9 C-6.690625 8.38125 -6.38125 7.7625 -6.0625 7.125 C-5.375 5.75 -4.6875 4.375 -4 3 C-3.34 3 -2.68 3 -2 3 C-2 2.34 -2 1.68 -2 1 C-1.34 0.67 -0.68 0.34 0 0 Z " fill="#242424" transform="translate(83,181)"/>
<path d="M0 0 C-0.99 2.64 -1.98 5.28 -3 8 C-0.69 8.66 1.62 9.32 4 10 C4.33 9.34 4.66 8.68 5 8 C5.99 8.66 6.98 9.32 8 10 C1.36796395 11.74137259 -5.28986572 13.34068213 -12 14.75 C-13.2375 15.01296875 -14.475 15.2759375 -15.75 15.546875 C-18.66108408 15.9527473 -20.28924995 16.00297752 -23 15 C-21.5023304 12.50175965 -19.98441782 10.13995327 -18 8 C-15.1875 7.5625 -15.1875 7.5625 -13 8 C-12.67 6.35 -12.34 4.7 -12 3 C-14.64 3.33 -17.28 3.66 -20 4 C-17.25195654 1.25195654 -14.24817317 1.01634916 -10.5625 0.3125 C-9.88123047 0.17005859 -9.19996094 0.02761719 -8.49804688 -0.11914062 C-5.18780174 -0.77081474 -3.25376819 -1.0845894 0 0 Z " fill="#1B1B1B" transform="translate(212,305)"/>
<path d="M0 0 C0.66 0.33 1.32 0.66 2 1 C0.26440562 4.057952 -1.38472619 6.63379989 -4 9 C-1.35261084 10.4606285 -0.10551666 11 3 11 C4.6875 12.5 4.6875 12.5 6 14 C4.8803014 15.00593243 3.7540588 16.0045849 2.625 17 C1.99851562 17.556875 1.37203125 18.11375 0.7265625 18.6875 C-1 20 -1 20 -3 20 C-3 20.66 -3 21.32 -3 22 C-4.98 22.99 -6.96 23.98 -9 25 C-9 24.01 -9 23.02 -9 22 C-10.32 22.33 -11.64 22.66 -13 23 C-12.814375 22.071875 -12.62875 21.14375 -12.4375 20.1875 C-11.75876119 16.98656229 -11.75876119 16.98656229 -13 14 C-13.99 14.33 -14.98 14.66 -16 15 C-15.67 13.02 -15.34 11.04 -15 9 C-14.01 10.485 -14.01 10.485 -13 12 C-12.45730469 11.57847656 -11.91460937 11.15695313 -11.35546875 10.72265625 C-10.64003906 10.17480469 -9.92460937 9.62695312 -9.1875 9.0625 C-8.47980469 8.51722656 -7.77210938 7.97195312 -7.04296875 7.41015625 C-5 6 -5 6 -2 5 C-0.78130071 2.49552484 -0.78130071 2.49552484 0 0 Z M-9 20 C-8.67 20.66 -8.34 21.32 -8 22 C-7.67 21.34 -7.34 20.68 -7 20 C-7.66 20 -8.32 20 -9 20 Z " fill="#222222" transform="translate(395,212)"/>
<path d="M0 0 C0.28467815 7.40163191 0.28467815 7.40163191 -2 11 C-3.9453125 12.703125 -3.9453125 12.703125 -6.125 14.25 C-6.84945312 14.77078125 -7.57390625 15.2915625 -8.3203125 15.828125 C-8.87460938 16.21484375 -9.42890625 16.6015625 -10 17 C-10.66 16.34 -11.32 15.68 -12 15 C-13.98821313 14.60235737 -15.98944339 14.26224651 -18 14 C-18.33 13.01 -18.66 12.02 -19 11 C-18.67 10.34 -18.34 9.68 -18 9 C-17.34 9 -16.68 9 -16 9 C-15.95875 8.443125 -15.9175 7.88625 -15.875 7.3125 C-14.52447231 3.74324824 -12.03422731 2.20130216 -9 0 C-5.75550934 -1.37645058 -3.37502949 -0.84375737 0 0 Z " fill="#242525" transform="translate(100,174)"/>
<path d="M0 0 C0.33 0.99 0.66 1.98 1 3 C0.01 4.485 0.01 4.485 -1 6 C-3.625 6.1875 -3.625 6.1875 -6 6 C-6 6.66 -6 7.32 -6 8 C-7.31200404 9.35432675 -8.64631404 10.68733482 -10 12 C-10.33 12.66 -10.66 13.32 -11 14 C-11.69867188 13.97679687 -12.39734375 13.95359375 -13.1171875 13.9296875 C-14.48230469 13.90261719 -14.48230469 13.90261719 -15.875 13.875 C-16.77992188 13.85179687 -17.68484375 13.82859375 -18.6171875 13.8046875 C-21.18806994 13.75675164 -21.18806994 13.75675164 -23 16 C-25.125 15.625 -25.125 15.625 -27 15 C-26.34 14.01 -25.68 13.02 -25 12 C-25 11.34 -25 10.68 -25 10 C-24.360625 9.87625 -23.72125 9.7525 -23.0625 9.625 C-22.381875 9.41875 -21.70125 9.2125 -21 9 C-20.67 8.34 -20.34 7.68 -20 7 C-20 7.99 -20 8.98 -20 10 C-18.58101234 7.35122304 -17.68088981 4.91985181 -17 2 C-15.10507994 1.66151348 -13.20901534 1.32943089 -11.3125 1 C-10.25675781 0.814375 -9.20101562 0.62875 -8.11328125 0.4375 C-5.35095938 0.04931926 -2.78257957 -0.08259976 0 0 Z " fill="#101010" transform="translate(200,308)"/>
<path d="M0 0 C0.33 0 0.66 0 1 0 C1.86359832 13.38577394 -4.53763735 22.28029131 -13 32 C-13.99 32.66 -14.98 33.32 -16 34 C-16 33.34 -16 32.68 -16 32 C-16.66 32 -17.32 32 -18 32 C-17.67 30.68 -17.34 29.36 -17 28 C-16.21625 27.938125 -15.4325 27.87625 -14.625 27.8125 C-13.75875 27.544375 -12.8925 27.27625 -12 27 C-10.62533375 24.52363988 -10.62533375 24.52363988 -10 22 C-11.32 23.32 -12.64 24.64 -14 26 C-14.66 25.34 -15.32 24.68 -16 24 C-17.32392972 22.98758315 -18.65599167 21.98560611 -20 21 C-19.02501855 19.4972763 -18.04490611 17.99788037 -17.0625 16.5 C-16.51722656 15.6646875 -15.97195313 14.829375 -15.41015625 13.96875 C-14.94480469 13.3190625 -14.47945313 12.669375 -14 12 C-13.67 12 -13.34 12 -13 12 C-12.87625 12.804375 -12.7525 13.60875 -12.625 14.4375 C-12.315625 15.7059375 -12.315625 15.7059375 -12 17 C-11.34 17.33 -10.68 17.66 -10 18 C-9.67 16.68 -9.34 15.36 -9 14 C-7.02 13.67 -5.04 13.34 -3 13 C-1.41744803 8.67435795 -0.54855348 4.571279 0 0 Z " fill="#191B1A" transform="translate(358,202)"/>
<path d="M0 0 C-0.66 0 -1.32 0 -2 0 C-2 0.66 -2 1.32 -2 2 C-2.66 2 -3.32 2 -4 2 C-4 3.32 -4 4.64 -4 6 C1.13678371 7.9119949 1.13678371 7.9119949 6.3125 7.0625 C6.869375 6.711875 7.42625 6.36125 8 6 C8 7.32 8 8.64 8 10 C5.60872043 10.86928276 3.21338274 11.72051601 0.8125 12.5625 C0.13896484 12.80935547 -0.53457031 13.05621094 -1.22851562 13.31054688 C-5.18141507 14.67959985 -7.99890228 15.43158542 -12 14 C-13.875 12.25 -13.875 12.25 -15 10 C-14.86278131 7.18701687 -14.52318613 5.61873809 -12.6953125 3.45703125 C-10.84904911 1.87026571 -9.27568016 1.09476006 -7 0.25 C-6.319375 -0.01296875 -5.63875 -0.2759375 -4.9375 -0.546875 C-3 -1 -3 -1 0 0 Z " fill="#191919" transform="translate(134,325)"/>
<path d="M0 0 C-0.33 0.99 -0.66 1.98 -1 3 C0.32 3 1.64 3 3 3 C3.33 2.01 3.66 1.02 4 0 C4.99 0.33 5.98 0.66 7 1 C6.875 2.875 6.875 2.875 6 5 C5.030625 5.309375 4.06125 5.61875 3.0625 5.9375 C2.051875 6.288125 1.04125 6.63875 0 7 C-1.15521502 9.47130918 -1.15521502 9.47130918 -2 12 C-3.875 13.0625 -3.875 13.0625 -6 14 C-6.70125 14.70125 -7.4025 15.4025 -8.125 16.125 C-8.74375 16.74375 -9.3625 17.3625 -10 18 C-10.66 18 -11.32 18 -12 18 C-12.33 18.66 -12.66 19.32 -13 20 C-14.32 19.34 -15.64 18.68 -17 18 C-16.67 16.35 -16.34 14.7 -16 13 C-15.01 12.67 -14.02 12.34 -13 12 C-12.86335938 11.40703125 -12.72671875 10.8140625 -12.5859375 10.203125 C-11.75748903 7.08815876 -10.02777075 5.84950842 -7.625 3.75 C-6.83351563 3.04359375 -6.04203125 2.3371875 -5.2265625 1.609375 C-3 0 -3 0 0 0 Z " fill="#101010" transform="translate(118,288)"/>
<path d="M0 0 C0.33 0.66 0.66 1.32 1 2 C1.99 1.67 2.98 1.34 4 1 C6.0625 2.6875 6.0625 2.6875 8 5 C7.875 7.6875 7.875 7.6875 7 10 C4.63980407 11.18009796 2.83904283 11.29767685 0.2109375 11.53515625 C-1.20058594 11.66567383 -1.20058594 11.66567383 -2.640625 11.79882812 C-3.62546875 11.88583984 -4.6103125 11.97285156 -5.625 12.0625 C-6.61757812 12.15337891 -7.61015625 12.24425781 -8.6328125 12.33789062 C-11.08823868 12.56218436 -13.54394389 12.78273107 -16 13 C-16 9 -16 9 -14 7 C-12.65737935 7.29369827 -11.32303717 7.6278958 -10 8 C-9.34 7.67 -8.68 7.34 -8 7 C-7.835 6.01 -7.67 5.02 -7.5 4 C-7.335 3.01 -7.17 2.02 -7 1 C-4.53721199 -0.231394 -2.7204945 -0.07159196 0 0 Z " fill="#141414" transform="translate(243,299)"/>
<path d="M0 0 C0 2.31 0 4.62 0 7 C-0.99 6.67 -1.98 6.34 -3 6 C-3 6.66 -3 7.32 -3 8 C-2.01 8.66 -1.02 9.32 0 10 C-2.25 11.5625 -2.25 11.5625 -5 13 C-7.0625 12.625 -7.0625 12.625 -9 12 C-9.66 12.185625 -10.32 12.37125 -11 12.5625 C-13.65190771 13.14260481 -14.72013668 12.36791799 -17 11 C-17.66 10.67 -18.32 10.34 -19 10 C-19 8.68 -19 7.36 -19 6 C-18.34 6 -17.68 6 -17 6 C-17 5.34 -17 4.68 -17 4 C-11.15439723 1.36536213 -6.45512034 -0.56131481 0 0 Z " fill="#111111" transform="translate(149,321)"/>
<path d="M0 0 C0.99 0.33 1.98 0.66 3 1 C1.7580393 4.43927579 0.44259716 7.25207819 -2 10 C-2.66 10 -3.32 10 -4 10 C-4.2371875 10.58265625 -4.474375 11.1653125 -4.71875 11.765625 C-6.2726806 14.47552837 -8.01929431 15.86530802 -10.5 17.75 C-11.2940625 18.36359375 -12.088125 18.9771875 -12.90625 19.609375 C-15 21 -15 21 -17 21 C-17 21.66 -17 22.32 -17 23 C-18.32 23.33 -19.64 23.66 -21 24 C-21 23.34 -21 22.68 -21 22 C-20.34 21.67 -19.68 21.34 -19 21 C-19 20.01 -19 19.02 -19 18 C-19.598125 18.515625 -20.19625 19.03125 -20.8125 19.5625 C-21.534375 20.036875 -22.25625 20.51125 -23 21 C-23.99 20.67 -24.98 20.34 -26 20 C-25.34 19.67 -24.68 19.34 -24 19 C-24.33 17.68 -24.66 16.36 -25 15 C-26.32 15.33 -27.64 15.66 -29 16 C-29 15.34 -29 14.68 -29 14 C-27.21601386 12.71993203 -25.37146094 11.52339649 -23.5 10.375 C-22.4790625 9.74335938 -21.458125 9.11171875 -20.40625 8.4609375 C-19.6121875 7.97882813 -18.818125 7.49671875 -18 7 C-17.67 7.66 -17.34 8.32 -17 9 C-17.99 9.66 -18.98 10.32 -20 11 C-20 12.32 -20 13.64 -20 15 C-14.89701637 15 -13.7474983 13.26909426 -10 10 C-9.01 9.67 -8.02 9.34 -7 9 C-7 8.34 -7 7.68 -7 7 C-4.66666667 4.66666667 -2.33333333 2.33333333 0 0 Z " fill="#262727" transform="translate(122,291)"/>
<path d="M0 0 C0.94875 0.04125 1.8975 0.0825 2.875 0.125 C3.205 1.775 3.535 3.425 3.875 5.125 C3.215 5.125 2.555 5.125 1.875 5.125 C1.875 5.785 1.875 6.445 1.875 7.125 C1.235625 7.41375 0.59625 7.7025 -0.0625 8 C-2.27706079 8.95323451 -2.27706079 8.95323451 -3.125 11.125 C-4.445 11.125 -5.765 11.125 -7.125 11.125 C-7.95 11.785 -8.775 12.445 -9.625 13.125 C-12.125 15.125 -12.125 15.125 -16.125 15.125 C-16.125 14.465 -16.125 13.805 -16.125 13.125 C-16.785 12.795 -17.445 12.465 -18.125 12.125 C-16.30139433 8.11306753 -14.70748809 4.78627687 -11.125 2.125 C-8 2 -8 2 -5.125 2.125 C-3.125 0.125 -3.125 0.125 0 0 Z " fill="#121312" transform="translate(227.125,207.875)"/>
<path d="M0 0 C0.66 0 1.32 0 2 0 C1.979375 1.0725 1.95875 2.145 1.9375 3.25 C1.98654872 6.1929232 2.28127127 8.22776061 3 11 C2 13 2 13 -1 14.125 C-4 15 -4 15 -5 15 C-5.33 17.97 -5.66 20.94 -6 24 C-6.78375 23.649375 -7.5675 23.29875 -8.375 22.9375 C-9.24125 22.628125 -10.1075 22.31875 -11 22 C-11.66 22.33 -12.32 22.66 -13 23 C-14.32 21.68 -15.64 20.36 -17 19 C-16.21625 18.443125 -15.4325 17.88625 -14.625 17.3125 C-11.85908716 15.24694381 -11.85908716 15.24694381 -11.0625 12.4375 C-9.56708677 9.00684611 -7.28929878 8.61108512 -4 7 C-2.15565651 4.53884453 -2.15565651 4.53884453 -1 2 C-0.67 1.34 -0.34 0.68 0 0 Z " fill="#070908" transform="translate(407,201)"/>
<path d="M0 0 C0.33 0.66 0.66 1.32 1 2 C0.34 2 -0.32 2 -1 2 C0.32 3.98 1.64 5.96 3 8 C4.65 7.01 6.3 6.02 8 5 C8.33 5.66 8.66 6.32 9 7 C12.02934491 7.65772428 12.02934491 7.65772428 15 8 C15 8.33 15 8.66 15 9 C13.2365625 9.309375 13.2365625 9.309375 11.4375 9.625 C5.1798266 11.16722802 1.4070877 15.56644331 -3 20 C-3.33 18.02 -3.66 16.04 -4 14 C-3.34 13.67 -2.68 13.34 -2 13 C-2.33 12.01 -2.66 11.02 -3 10 C-3.66 10 -4.32 10 -5 10 C-5.33 10.66 -5.66 11.32 -6 12 C-6.99 11.34 -7.98 10.68 -9 10 C-9.66 11.65 -10.32 13.3 -11 15 C-11.66 14.67 -12.32 14.34 -13 14 C-9.20962911 8.52964787 -5.24972347 4.10037573 0 0 Z " fill="#323232" transform="translate(331,194)"/>
<path d="M0 0 C1.33332095 2.6666419 0.67102033 4.16680303 0 7 C-0.66 7 -1.32 7 -2 7 C-1.67 7.99 -1.34 8.98 -1 10 C-2 13 -2 13 -4 14 C-4.226875 14.804375 -4.45375 15.60875 -4.6875 16.4375 C-6 19 -6 19 -9.4375 20.3125 C-13 21 -13 21 -16 21 C-16.33 19.68 -16.66 18.36 -17 17 C-16.4225 16.62488281 -15.845 16.24976563 -15.25 15.86328125 C-14.5075 15.35152344 -13.765 14.83976563 -13 14.3125 C-12.2575 13.81363281 -11.515 13.31476563 -10.75 12.80078125 C-8.7174577 11.11174052 -8.7174577 11.11174052 -8.90625 8.4375 C-8.9371875 7.633125 -8.968125 6.82875 -9 6 C-6.5 3.6875 -6.5 3.6875 -4 2 C-3.67 2.99 -3.34 3.98 -3 5 C-2.34 5 -1.68 5 -1 5 C-1.33 3.68 -1.66 2.36 -2 1 C-1.34 0.67 -0.68 0.34 0 0 Z " fill="#080807" transform="translate(426,236)"/>
<path d="M0 0 C1.6140712 2.8973901 2.3756433 5.33286311 2.75 8.625 C2.89695312 9.78902344 2.89695312 9.78902344 3.046875 10.9765625 C3 13 3 13 1 15 C0.01 14.34 -0.98 13.68 -2 13 C-2.66 13 -3.32 13 -4 13 C-4.226875 13.61875 -4.45375 14.2375 -4.6875 14.875 C-6.40962687 17.66320542 -7.87800152 18.16239065 -11 19 C-11.99 18.67 -12.98 18.34 -14 18 C-12.78496208 15.88649731 -11.55421106 13.78525602 -10.3125 11.6875 C-9.97283203 11.09259766 -9.63316406 10.49769531 -9.28320312 9.88476562 C-6.98809524 6.04528607 -4.93082229 4.06920628 -1 2 C-0.67 1.34 -0.34 0.68 0 0 Z " fill="#212321" transform="translate(260,250)"/>
<path d="M0 0 C0 0.66 0 1.32 0 2 C-0.66 2 -1.32 2 -2 2 C-1.34 3.65 -0.68 5.3 0 7 C0.66 7 1.32 7 2 7 C2 7.99 2 8.98 2 10 C3.32 10.33 4.64 10.66 6 11 C-2.73210768 15.85357846 -2.73210768 15.85357846 -7 15 C-8.8125 13.9375 -8.8125 13.9375 -10 12 C-10.1875 8.3125 -10.1875 8.3125 -10 5 C-9.34 5 -8.68 5 -8 5 C-8 4.34 -8 3.68 -8 3 C-2.25 0 -2.25 0 0 0 Z " fill="#2D2E2D" transform="translate(73,243)"/>
<path d="M0 0 C2.66666667 4 2.66666667 4 3 7 C2.411438 9.354248 1.75407101 11.69342986 1 14 C1.99 14.33 2.98 14.66 4 15 C3 18 3 18 1 19 C0.34444881 21.52733235 0.34444881 21.52733235 0 24 C-0.99 24.33 -1.98 24.66 -3 25 C-3.66 24.67 -4.32 24.34 -5 24 C-5 23.34 -5 22.68 -5 22 C-5.66 22 -6.32 22 -7 22 C-6.75 20.125 -6.75 20.125 -6 18 C-3.9375 16.75 -3.9375 16.75 -2 16 C-2.556875 15.38125 -3.11375 14.7625 -3.6875 14.125 C-5.48578962 9.84335805 -4.34779958 7.40234026 -2.95703125 3.109375 C-2 1 -2 1 0 0 Z M-3 11 C-3 11.66 -3 12.32 -3 13 C-2.34 12.67 -1.68 12.34 -1 12 C-1.66 11.67 -2.32 11.34 -3 11 Z " fill="#0B0D0D" transform="translate(181,227)"/>
<path d="M0 0 C0.103125 0.556875 0.20625 1.11375 0.3125 1.6875 C1.13133577 4.44176578 2.45853781 6.58727657 4 9 C3.195625 9.268125 2.39125 9.53625 1.5625 9.8125 C0.716875 10.204375 -0.12875 10.59625 -1 11 C-1.33 11.99 -1.66 12.98 -2 14 C0.31 14.66 2.62 15.32 5 16 C4.04578192 17.14926266 3.08647955 18.29430541 2.125 19.4375 C1.59132812 20.07558594 1.05765625 20.71367187 0.5078125 21.37109375 C-1 23 -1 23 -3 24 C-3 23.01 -3 22.02 -3 21 C-3.66 20.34 -4.32 19.68 -5 19 C-4.67 18.01 -4.34 17.02 -4 16 C-4.66 16 -5.32 16 -6 16 C-6.33 15.01 -6.66 14.02 -7 13 C-7.33 12.34 -7.66 11.68 -8 11 C-7.34 11 -6.68 11 -6 11 C-5.7525 10.484375 -5.505 9.96875 -5.25 9.4375 C-3.60418384 6.22815849 -1.8023904 3.12414336 0 0 Z M2 3 C2.66 3.66 3.32 4.32 4 5 C3.34 5 2.68 5 2 5 C2 4.34 2 3.68 2 3 Z " fill="#242625" transform="translate(176,235)"/>
<path d="M0 0 C-0.72008406 4.60853797 -2.31295939 8.67237409 -4 13 C-4.4125 12.360625 -4.825 11.72125 -5.25 11.0625 C-7.23988774 8.71727516 -8.12843008 8.67003298 -11 8 C-11.33 7.01 -11.66 6.02 -12 5 C-11.360625 4.896875 -10.72125 4.79375 -10.0625 4.6875 C-9.381875 4.460625 -8.70125 4.23375 -8 4 C-7.67 3.01 -7.34 2.02 -7 1 C-4 0 -4 0 0 0 Z M-15 4 C-14.01 4.99 -13.02 5.98 -12 7 C-13 10 -13 10 -14 11 C-13.7215625 11.9590625 -13.7215625 11.9590625 -13.4375 12.9375 C-13.293125 13.618125 -13.14875 14.29875 -13 15 C-13.66 15.66 -14.32 16.32 -15 17 C-17.125 16.625 -17.125 16.625 -19 16 C-17.87204037 11.89100419 -16.66489182 7.92438786 -15 4 Z " fill="#2A2B2B" transform="translate(303,221)"/>
<path d="M0 0 C-0.556875 0.185625 -1.11375 0.37125 -1.6875 0.5625 C-4.08056656 2.05008191 -4.85212193 3.07343347 -6.375 5.375 C-9.16620556 9.49739591 -12.42002626 12.11543757 -17.1875 13.75 C-19 14 -19 14 -22 14 C-22 11 -22 11 -20.64453125 9.28125 C-14.04048637 2.86025967 -9.3544021 -0.21260005 0 0 Z " fill="#232424" transform="translate(177,213)"/>
<path d="M0 0 C0.33 0 0.66 0 1 0 C1 1.98 1 3.96 1 6 C2.32 5.34 3.64 4.68 5 4 C5.99 4.66 6.98 5.32 8 6 C4.86501708 7.85776765 2.62528568 8.20140476 -1 8 C-1 8.66 -1 9.32 -1 10 C-0.34 10.33 0.32 10.66 1 11 C1.33 11.99 1.66 12.98 2 14 C2.99 14 3.98 14 5 14 C6 17 6 17 6 20 C5.01 19.67 4.02 19.34 3 19 C3 18.34 3 17.68 3 17 C2.01 17 1.02 17 0 17 C0 17.66 0 18.32 0 19 C-0.99 19 -1.98 19 -3 19 C-3.33 19.66 -3.66 20.32 -4 21 C-4.33 19.68 -4.66 18.36 -5 17 C-6.485 19.475 -6.485 19.475 -8 22 C-8.99 21.67 -9.98 21.34 -11 21 C-10.54109375 20.40574219 -10.0821875 19.81148437 -9.609375 19.19921875 C-5.08801028 13.09157692 -2.22154314 7.25796083 0 0 Z " fill="#313231" transform="translate(129,196)"/>
<path d="M0 0 C3.06630664 0.8974556 4.73038808 1.73038808 7 4 C7.125 7.625 7.125 7.625 7 11 C6.67 11 6.34 11 6 11 C6 9.02 6 7.04 6 5 C5.67 5.66 5.34 6.32 5 7 C4.01 7 3.02 7 2 7 C1.67 7.99 1.34 8.98 1 10 C0.01 10.495 0.01 10.495 -1 11 C-2.13350534 13.01669827 -2.13350534 13.01669827 -3 15 C-3.66 14.34 -4.32 13.68 -5 13 C-5.99 13.66 -6.98 14.32 -8 15 C-7.56509678 9.56370977 -6.3898616 6.2871779 -3 2 C-2.01 1.34 -1.02 0.68 0 0 Z " fill="#141615" transform="translate(305,192)"/>
<path d="M0 0 C0.33 0.99 0.66 1.98 1 3 C1.66 3 2.32 3 3 3 C3.33 4.65 3.66 6.3 4 8 C5.32 8 6.64 8 8 8 C8 9.32 8 10.64 8 12 C7.01 12.495 7.01 12.495 6 13 C5.67 13.99 5.34 14.98 5 16 C1.535 14.02 1.535 14.02 -2 12 C-1.67 10.35 -1.34 8.7 -1 7 C-1.61875 7.185625 -2.2375 7.37125 -2.875 7.5625 C-5 8 -5 8 -7 7 C-7 6.01 -7 5.02 -7 4 C-7.66 4 -8.32 4 -9 4 C-9 3.34 -9 2.68 -9 2 C-6.61435923 2.57584432 -4.33317216 3.22227595 -2 4 C-1.34 2.68 -0.68 1.36 0 0 Z " fill="#0F0F0F" transform="translate(204,271)"/>
<path d="M0 0 C0.99 0.66 1.98 1.32 3 2 C2.01 2.99 1.02 3.98 0 5 C0.99 4.67 1.98 4.34 3 4 C3 7 3 10 3 13 C1.02 13.99 1.02 13.99 -1 15 C-1.66 13.35 -2.32 11.7 -3 10 C-4.98491642 10.26676204 -4.98491642 10.26676204 -7 11 C-7.33 11.99 -7.66 12.98 -8 14 C-8.66 13.67 -9.32 13.34 -10 13 C-9.55212676 8.35026146 -7.97814403 6.62972532 -4.4375 3.6875 C-3.61121094 2.99011719 -2.78492188 2.29273438 -1.93359375 1.57421875 C-1.29550781 1.05472656 -0.65742188 0.53523438 0 0 Z " fill="#0A0A0A" transform="translate(181,274)"/>
<path d="M0 0 C1.65 0.33 3.3 0.66 5 1 C5 1.66 5 2.32 5 3 C5.66 3 6.32 3 7 3 C8.10844919 6.32534757 7.84454356 8.62182575 7 12 C6.34 12 5.68 12 5 12 C4.67 13.65 4.34 15.3 4 17 C3.01 16.67 2.02 16.34 1 16 C1 15.01 1 14.02 1 13 C0.34 13 -0.32 13 -1 13 C-0.67 10.69 -0.34 8.38 0 6 C-0.66 6 -1.32 6 -2 6 C-1.34 4.02 -0.68 2.04 0 0 Z " fill="#0C0C0D" transform="translate(70,199)"/>
<path d="M0 0 C0.66 0 1.32 0 2 0 C2 0.99 2 1.98 2 3 C5.465 2.505 5.465 2.505 9 2 C8.67 3.98 8.34 5.96 8 8 C10.9826906 9.52448631 13.818202 10.93940067 17 12 C17 12.99 17 13.98 17 15 C10.67374535 14.67277993 7.54849232 13.7600501 3 9 C1.02041763 5.70069605 0 3.84926685 0 0 Z " fill="#3D3D3D" transform="translate(195,275)"/>
<path d="M0 0 C2.5625 0.1875 2.5625 0.1875 4.5625 2.1875 C4.89002234 4.90204956 4.6933425 7.43980759 4.5625 10.1875 C3.5625 11.1875 3.5625 11.1875 1.1875 11.4375 C-1.4375 11.1875 -1.4375 11.1875 -3.3125 10.125 C-5.10060335 7.04548867 -4.18342606 4.54416727 -3.4375 1.1875 C-2.4375 0.1875 -2.4375 0.1875 0 0 Z " fill="#333334" transform="translate(240.4375,179.8125)"/>
<path d="M0 0 C-0.8828125 1.96484375 -0.8828125 1.96484375 -2 4 C-3.875 4.5625 -3.875 4.5625 -6 5 C-6.8353125 5.86625 -6.8353125 5.86625 -7.6875 6.75 C-10 8 -10 8 -12.25390625 7.52734375 C-14.53996748 6.75816822 -16.77386485 5.92755631 -19 5 C-18.15234375 3.046875 -18.15234375 3.046875 -17 1 C-11.6011169 -0.6611948 -5.60467157 -0.08975453 0 0 Z " fill="#040505" transform="translate(356,287)"/>
<path d="M0 0 C-0.1875 2.8125 -0.1875 2.8125 -1 6 C-4.56189681 9.05305441 -7.40665718 9.32046578 -12 9 C-11.25 2.25 -11.25 2.25 -9 0 C-5.7295226 -1.24052591 -3.35038257 -0.83759564 0 0 Z " fill="#191B1B" transform="translate(100,174)"/>
<path d="M0 0 C1 2 1 2 0.25 4.5625 C-1 7 -1 7 -4 8 C-4.33 8.66 -4.66 9.32 -5 10 C-7.0625 11.125 -7.0625 11.125 -9 12 C-8.67 12.66 -8.34 13.32 -8 14 C-9.98 14.99 -9.98 14.99 -12 16 C-12.82325791 12.78180999 -13.20146081 10.63537641 -12.1875 7.4375 C-8.83462094 3.70143477 -4.54272653 2.00289069 0 0 Z " fill="#111111" transform="translate(350,251)"/>
<path d="M0 0 C8.57142857 -0.14285714 8.57142857 -0.14285714 12 1 C12 1.66 12 2.32 12 3 C13.32 3.66 14.64 4.32 16 5 C15.67 5.66 15.34 6.32 15 7 C14.34 7 13.68 7 13 7 C13 7.99 13 8.98 13 10 C11.68 10.33 10.36 10.66 9 11 C8.67 10.34 8.34 9.68 8 9 C8.33 8.34 8.66 7.68 9 7 C6.03 6.505 6.03 6.505 3 6 C3 4.68 3 3.36 3 2 C2.01 1.34 1.02 0.68 0 0 Z " fill="#0E0E0E" transform="translate(339,191)"/>
<path d="M0 0 C0.66 0.99 1.32 1.98 2 3 C2.99 3 3.98 3 5 3 C5 2.34 5 1.68 5 1 C5.99 1 6.98 1 8 1 C8.66 2.32 9.32 3.64 10 5 C8.68 5.33 7.36 5.66 6 6 C6 6.99 6 7.98 6 9 C1.6835078 9.76173392 -1.74433453 10.16063604 -6 9 C-6 8.01 -6 7.02 -6 6 C-5.38125 5.7525 -4.7625 5.505 -4.125 5.25 C-1.64931313 3.79371361 -1.04874998 2.62187494 0 0 Z " fill="#070808" transform="translate(124,212)"/>
<path d="M0 0 C0.99 0.33 1.98 0.66 3 1 C3 1.99 3 2.98 3 4 C3.99 4.33 4.98 4.66 6 5 C5.34 9.95 4.68 14.9 4 20 C3.67 20 3.34 20 3 20 C2.91363281 19.33613281 2.82726562 18.67226562 2.73828125 17.98828125 C1.80870316 12.14643729 0.91138365 8.74200659 -4 5 C-6.16620544 3.70480005 -6.16620544 3.70480005 -8 3 C-6.865625 2.690625 -5.73125 2.38125 -4.5625 2.0625 C-1.21224901 1.37075469 -1.21224901 1.37075469 0 0 Z " fill="#292B2A" transform="translate(127,176)"/>
<path d="M0 0 C0.33 0.99 0.66 1.98 1 3 C1.66 3 2.32 3 3 3 C3 3.99 3 4.98 3 6 C3.763125 5.79375 4.52625 5.5875 5.3125 5.375 C8 5 8 5 11 7 C9.68 7.33 8.36 7.66 7 8 C7 8.66 7 9.32 7 10 C6.34 10 5.68 10 5 10 C5 10.66 5 11.32 5 12 C4.34 12 3.68 12 3 12 C3 12.66 3 13.32 3 14 C2.34 14 1.68 14 1 14 C1 13.01 1 12.02 1 11 C0.01 11 -0.98 11 -2 11 C-1.125 6.25 -1.125 6.25 0 4 C-0.66 3.67 -1.32 3.34 -2 3 C-1.34 2.01 -0.68 1.02 0 0 Z " fill="#232526" transform="translate(387,194)"/>
<path d="M0 0 C0 10.1 0 10.1 -1 14 C-1.99 14.495 -1.99 14.495 -3 15 C-3.66 14.67 -4.32 14.34 -5 14 C-5 13.34 -5 12.68 -5 12 C-5.99 12 -6.98 12 -8 12 C-8 11.34 -8 10.68 -8 10 C-7.34 10 -6.68 10 -6 10 C-6.185625 9.236875 -6.37125 8.47375 -6.5625 7.6875 C-7 5 -7 5 -6 2 C-3.85412616 0.684787 -2.52986895 0 0 0 Z " fill="#090B0A" transform="translate(116,223)"/>
<path d="M0 0 C0.99 0.33 1.98 0.66 3 1 C3 1.66 3 2.32 3 3 C4.98 3.66 6.96 4.32 9 5 C9 7.31 9 9.62 9 12 C3.6 12.48 3.6 12.48 1.125 10.5 C-0.50517055 6.87739877 -0.19772667 3.95453342 0 0 Z " fill="#090909" transform="translate(64,214)"/>
<path d="M0 0 C0 0.66 0 1.32 0 2 C-0.66 2 -1.32 2 -2 2 C-2.2475 2.66 -2.495 3.32 -2.75 4 C-4.31817045 7.76360907 -6.14505046 11.3711424 -8 15 C-8.66 14.01 -9.32 13.02 -10 12 C-10.99 12.495 -10.99 12.495 -12 13 C-11.67 11.68 -11.34 10.36 -11 9 C-11.66 8.67 -12.32 8.34 -13 8 C-12.34 8 -11.68 8 -11 8 C-10.979375 7.4225 -10.95875 6.845 -10.9375 6.25 C-9.63730733 3.1295376 -7.67271726 2.32958827 -4.7890625 0.734375 C-3 0 -3 0 0 0 Z " fill="#2C2D2C" transform="translate(166,230)"/>
<path d="M0 0 C0.99 0.33 1.98 0.66 3 1 C2.34 2.65 1.68 4.3 1 6 C0.34 6 -0.32 6 -1 6 C-1 6.66 -1 7.32 -1 8 C-1.66 8 -2.32 8 -3 8 C-3 8.66 -3 9.32 -3 10 C-3.66 10 -4.32 10 -5 10 C-5.33 10.99 -5.66 11.98 -6 13 C-7 11 -8 9 -9 7 C-14.55053286 7.74359673 -14.55053286 7.74359673 -20 9 C-17.42215154 6.35247996 -15.08351902 4.05567935 -12 2 C-12 2.99 -12 3.98 -12 5 C-10.35 4.67 -8.7 4.34 -7 4 C-7 4.66 -7 5.32 -7 6 C-3.535 5.505 -3.535 5.505 0 5 C-0.33 4.01 -0.66 3.02 -1 2 C-0.67 1.34 -0.34 0.68 0 0 Z " fill="#2E302F" transform="translate(130,216)"/>
<path d="M0 0 C0.66 0.33 1.32 0.66 2 1 C1.01 2.485 1.01 2.485 0 4 C0.66 4 1.32 4 2 4 C2.98120464 7.05263664 2.98120464 8.94736336 2 12 C0.35 12 -1.3 12 -3 12 C-3 11.01 -3 10.02 -3 9 C-3.66 9 -4.32 9 -5 9 C-5.66 7.35 -6.32 5.7 -7 4 C-6.34 4 -5.68 4 -5 4 C-5 3.34 -5 2.68 -5 2 C-2.625 0.9375 -2.625 0.9375 0 0 Z " fill="#0B0B0C" transform="translate(78,241)"/>
<path d="M0 0 C3.125 1.5 3.125 1.5 5 3 C4.21625 3.61875 3.4325 4.2375 2.625 4.875 C0.03162353 6.89858661 0.03162353 6.89858661 -2 9 C-1.34 9.66 -0.68 10.32 0 11 C-2.64 11.66 -5.28 12.32 -8 13 C-8 11.68 -8 10.36 -8 9 C-6.35 8.67 -4.7 8.34 -3 8 C-3 7.34 -3 6.68 -3 6 C-2.34 6 -1.68 6 -1 6 C-1 5.34 -1 4.68 -1 4 C-1.66 3.67 -2.32 3.34 -3 3 C-2.67 2.34 -2.34 1.68 -2 1 C-5.35433109 1.94933899 -8.69246505 2.89748835 -12 4 C-12.66 3.34 -13.32 2.68 -14 2 C-9.45268513 -0.63597236 -5.13668637 -0.57258701 0 0 Z " fill="#2E302F" transform="translate(232,207)"/>
<path d="M0 0 C0.66 0 1.32 0 2 0 C2 0.66 2 1.32 2 2 C2.66 2.33 3.32 2.66 4 3 C4 4.32 4 5.64 4 7 C4.226875 7.680625 4.45375 8.36125 4.6875 9.0625 C4.790625 9.701875 4.89375 10.34125 5 11 C3.6875 12.5 3.6875 12.5 2 14 C1.67 14.70125 1.34 15.4025 1 16.125 C0 18 0 18 -3 19 C-2.01 12.73 -1.02 6.46 0 0 Z " fill="#070807" transform="translate(132,184)"/>
<path d="M0 0 C0.99 0.99 1.98 1.98 3 3 C2.01 3 1.02 3 0 3 C0.33 3.99 0.66 4.98 1 6 C-0.32 5.67 -1.64 5.34 -3 5 C-3 5.66 -3 6.32 -3 7 C-3.66 7 -4.32 7 -5 7 C-4.34 8.98 -3.68 10.96 -3 13 C-4.98 13.33 -6.96 13.66 -9 14 C-9.66 11.69 -10.32 9.38 -11 7 C-10.18595703 6.61908203 -10.18595703 6.61908203 -9.35546875 6.23046875 C-8.64003906 5.88628906 -7.92460937 5.54210937 -7.1875 5.1875 C-6.47980469 4.85105469 -5.77210938 4.51460938 -5.04296875 4.16796875 C-2.98870965 2.99354529 -1.58383722 1.74371984 0 0 Z " fill="#121312" transform="translate(258,262)"/>
<path d="M0 0 C1.32168051 2.17688554 2.0131712 3.55217933 1.9375 6.125 C1 8 1 8 -1.3125 9.25 C-4 10 -4 10 -8 10 C-8 11.65 -8 13.3 -8 15 C-8.99 15 -9.98 15 -11 15 C-9.74298422 10.49569344 -8.22199808 7.41152738 -5 4 C-2.8125 2.8125 -2.8125 2.8125 -1 2 C-0.67 1.34 -0.34 0.68 0 0 Z " fill="#424242" transform="translate(260,250)"/>
<path d="M0 0 C0.33 0 0.66 0 1 0 C1.20086443 3.71599191 1.1519437 4.77208445 -1 8 C-0.34 9.32 0.32 10.64 1 12 C-2 13 -2 13 -4.1875 12.0625 C-4.785625 11.711875 -5.38375 11.36125 -6 11 C-6.33 11.99 -6.66 12.98 -7 14 C-7 13.34 -7 12.68 -7 12 C-7.66 12 -8.32 12 -9 12 C-9 11.01 -9 10.02 -9 9 C-10.65 9.33 -12.3 9.66 -14 10 C-10.67154379 6.96097477 -7.18932789 6.05090529 -2.92578125 4.94140625 C-0.78848639 4.17185749 -0.78848639 4.17185749 -0.23046875 1.90234375 C-0.15441406 1.27457031 -0.07835938 0.64679688 0 0 Z " fill="#373837" transform="translate(87,233)"/>
<path d="M0 0 C-1.01940388 2.7801924 -1.69720287 3.82814217 -4.3125 5.3125 C-7.2923726 6.07479299 -9.0709637 5.83686751 -12 5 C-12 4.34 -12 3.68 -12 3 C-14.64 3.33 -17.28 3.66 -20 4 C-17.25195654 1.25195654 -14.24817317 1.01634916 -10.5625 0.3125 C-9.88123047 0.17005859 -9.19996094 0.02761719 -8.49804688 -0.11914062 C-5.18780174 -0.77081474 -3.25376819 -1.0845894 0 0 Z " fill="#333333" transform="translate(212,305)"/>
<path d="M0 0 C1.051875 0.2475 2.10375 0.495 3.1875 0.75 C3.5175 1.74 3.8475 2.73 4.1875 3.75 C2.8675 3.75 1.5475 3.75 0.1875 3.75 C0.1875 5.4 0.1875 7.05 0.1875 8.75 C-0.1425 8.09 -0.4725 7.43 -0.8125 6.75 C-2.7925 7.08 -4.7725 7.41 -6.8125 7.75 C-7.4725 6.43 -8.1325 5.11 -8.8125 3.75 C-5.66311307 0.60061307 -4.55934222 -0.29897326 0 0 Z " fill="#0D0F0E" transform="translate(322.8125,212.25)"/>
<path d="M0 0 C2 1 2 1 5 3 C5.04384447 4.66608987 5.0396713 6.33380554 5 8 C5.91568906 10.25132517 5.91568906 10.25132517 7 12 C5.68 12.99 4.36 13.98 3 15 C3 14.01 3 13.02 3 12 C3.66 12 4.32 12 5 12 C4.67 11.34 4.34 10.68 4 10 C3.01 9.67 2.02 9.34 1 9 C0.67 8.01 0.34 7.02 0 6 C-0.78375 6.515625 -1.5675 7.03125 -2.375 7.5625 C-3.24125 8.036875 -4.1075 8.51125 -5 9 C-5.66 8.67 -6.32 8.34 -7 8 C-4.69 5.36 -2.38 2.72 0 0 Z " fill="#292A29" transform="translate(350,246)"/>
<path d="M0 0 C0.99 0.33 1.98 0.66 3 1 C1.515 2.485 1.515 2.485 0 4 C0.99 4.66 1.98 5.32 3 6 C0.525 7.485 0.525 7.485 -2 9 C-1.73323796 10.98491642 -1.73323796 10.98491642 -1 13 C-0.01 13.33 0.98 13.66 2 14 C-1.03153686 13.67226629 -2.61573103 13.35865103 -4.875 11.25 C-6 9 -6 9 -5.875 6.4375 C-4.66772879 3.07438735 -3.16396751 1.58198376 0 0 Z " fill="#434344" transform="translate(125,326)"/>
<path d="M0 0 C0.66 0 1.32 0 2 0 C2.33 1.32 2.66 2.64 3 4 C2.01 4 1.02 4 0 4 C0 4.99 0 5.98 0 7 C-1.28788008 7.53012738 -2.58046678 8.0488329 -3.875 8.5625 C-4.95394531 8.99755859 -4.95394531 8.99755859 -6.0546875 9.44140625 C-8 10 -8 10 -10 9 C-9.4375 6.125 -9.4375 6.125 -8 3 C-4.4375 1.6875 -4.4375 1.6875 -1 1 C-0.67 0.67 -0.34 0.34 0 0 Z " fill="#1E1F1E" transform="translate(101,309)"/>
<path d="M0 0 C0 0.99 0 1.98 0 3 C-0.66 3 -1.32 3 -2 3 C-1.67 3.66 -1.34 4.32 -1 5 C-0.01 5 0.98 5 2 5 C1.34 6.65 0.68 8.3 0 10 C-1.65 9.67 -3.3 9.34 -5 9 C-5.33 8.01 -5.66 7.02 -6 6 C-6.66 5.67 -7.32 5.34 -8 5 C-7.625 3.0625 -7.625 3.0625 -7 1 C-4.53721199 -0.231394 -2.7204945 -0.07159196 0 0 Z " fill="#030404" transform="translate(243,299)"/>
<path d="M0 0 C0.33 0.99 0.66 1.98 1 3 C1.66 3.33 2.32 3.66 3 4 C1.68 4 0.36 4 -1 4 C-1.33 3.01 -1.66 2.02 -2 1 C-1.34 0.67 -0.68 0.34 0 0 Z M-4 3 C-3.01 3.66 -2.02 4.32 -1 5 C-1 5.66 -1 6.32 -1 7 C-1.804375 7.28875 -2.60875 7.5775 -3.4375 7.875 C-6.1326468 8.73262568 -6.1326468 8.73262568 -7 11 C-8.32 10.34 -9.64 9.68 -11 9 C-11 7.68 -11 6.36 -11 5 C-9.68 4.67 -8.36 4.34 -7 4 C-7 4.66 -7 5.32 -7 6 C-6.34 6 -5.68 6 -5 6 C-4.67 5.01 -4.34 4.02 -4 3 Z " fill="#090A0A" transform="translate(112,297)"/>
<path d="M0 0 C0.99 0 1.98 0 3 0 C1.24653435 5.10099097 -1.32805867 11.47110938 -6.1640625 14.23828125 C-7.07285156 14.61533203 -7.07285156 14.61533203 -8 15 C-8 12 -8 12 -6 9 C-5.34 8.67 -4.68 8.34 -4 8 C-4.66 7.34 -5.32 6.68 -6 6 C-5.67 5.34 -5.34 4.68 -5 4 C-4.34 4 -3.68 4 -3 4 C-3 3.34 -3 2.68 -3 2 C-2.01 2 -1.02 2 0 2 C0 1.34 0 0.68 0 0 Z " fill="#383838" transform="translate(258,265)"/>
<path d="M0 0 C0.66 0.33 1.32 0.66 2 1 C1.125 3.3125 1.125 3.3125 -1 6 C-4.25503832 7.34185155 -7.57339945 8.20924603 -11 9 C-12.125 5.25 -12.125 5.25 -11 3 C-10.34 3 -9.68 3 -9 3 C-9 2.34 -9 1.68 -9 1 C-5 1 -5 1 -2 3 C-1.34 2.01 -0.68 1.02 0 0 Z " fill="#090A09" transform="translate(347,223)"/>
<path d="M0 0 C0.99 0.33 1.98 0.66 3 1 C3 4 3 4 1.625 5.6875 C0 7 0 7 -2 7 C-2 7.66 -2 8.32 -2 9 C-2.66 9 -3.32 9 -4 9 C-4.66 10.32 -5.32 11.64 -6 13 C-6.103125 12.21625 -6.20625 11.4325 -6.3125 10.625 C-6.77595022 7.66954819 -6.77595022 7.66954819 -10 6 C-8.906875 5.566875 -7.81375 5.13375 -6.6875 4.6875 C-3.90591207 3.50504359 -1.93638061 2.39199957 0 0 Z " fill="#2E2E2F" transform="translate(221,217)"/>
<path d="M0 0 C0.33 0.99 0.66 1.98 1 3 C-0.4375 5.6875 -0.4375 5.6875 -2 8 C-1.01 9.485 -1.01 9.485 0 11 C-2.97 13.475 -2.97 13.475 -6 16 C-6 11.71 -6 7.42 -6 3 C-4.02 2.67 -2.04 2.34 0 2 C0 1.34 0 0.68 0 0 Z " fill="#0D0D0D" transform="translate(312,234)"/>
<path d="M0 0 C0.125 6.625 0.125 6.625 -1 10 C-3.31 10 -5.62 10 -8 10 C-7.67 8.35 -7.34 6.7 -7 5 C-6.34 5 -5.68 5 -5 5 C-4.87625 4.360625 -4.7525 3.72125 -4.625 3.0625 C-4.41875 2.381875 -4.2125 1.70125 -4 1 C-2 0 -2 0 0 0 Z " fill="#0B0D0C" transform="translate(311,197)"/>
<path d="M0 0 C2.65517241 3.98275862 2.65517241 3.98275862 3 7 C2.0625 10.25 2.0625 10.25 1 13 C-0.32 12.34 -1.64 11.68 -3 11 C-3.33 11.66 -3.66 12.32 -4 13 C-5.39460991 10.21078018 -4.58060045 8.87922897 -3.6875 5.9375 C-3.42324219 5.03902344 -3.15898437 4.14054688 -2.88671875 3.21484375 C-2 1 -2 1 0 0 Z " fill="#050605" transform="translate(181,227)"/>
<path d="M0 0 C0.99 0 1.98 0 3 0 C3 0.99 3 1.98 3 3 C3.66 3.66 4.32 4.32 5 5 C5 6.9375 5 6.9375 4 9 C0.9375 10.75 0.9375 10.75 -2 12 C-2.05422947 10.5629191 -2.09289723 9.12524538 -2.125 7.6875 C-2.14820313 6.88699219 -2.17140625 6.08648437 -2.1953125 5.26171875 C-2 3 -2 3 0 0 Z " fill="#1F2020" transform="translate(169,251)"/>
<path d="M0 0 C0.99 0.99 1.98 1.98 3 3 C1.71284028 4.64936048 0.42012981 6.29439047 -0.875 7.9375 C-1.95394531 9.31228516 -1.95394531 9.31228516 -3.0546875 10.71484375 C-5 13 -5 13 -7 14 C-7 13.34 -7 12.68 -7 12 C-7.66 12 -8.32 12 -9 12 C-8.67 10.68 -8.34 9.36 -8 8 C-7.21625 7.938125 -6.4325 7.87625 -5.625 7.8125 C-4.75875 7.544375 -3.8925 7.27625 -3 7 C-1.67518454 4.60470331 -1.67518454 4.60470331 -1 2 C-0.67 1.34 -0.34 0.68 0 0 Z " fill="#3C3D3F" transform="translate(349,222)"/>
<path d="M0 0 C0.33 0 0.66 0 1 0 C1.22331199 1.58129029 1.42804644 3.16521089 1.625 4.75 C1.74101562 5.63171875 1.85703125 6.5134375 1.9765625 7.421875 C2.00207817 10.22859878 1.44843844 11.63384866 0 14 C-0.66 13.34 -1.32 12.68 -2 12 C-3.32392972 10.98758315 -4.65599167 9.98560611 -6 9 C-5.02501855 7.4972763 -4.04490611 5.99788037 -3.0625 4.5 C-2.51722656 3.6646875 -1.97195313 2.829375 -1.41015625 1.96875 C-0.94480469 1.3190625 -0.47945313 0.669375 0 0 Z " fill="#222423" transform="translate(344,214)"/>
<path d="M0 0 C0.66 0.33 1.32 0.66 2 1 C1.05016642 2.50539661 0.08988109 4.00420347 -0.875 5.5 C-1.40867187 6.3353125 -1.94234375 7.170625 -2.4921875 8.03125 C-2.98976563 8.6809375 -3.48734375 9.330625 -4 10 C-4.66 10 -5.32 10 -6 10 C-6.33 10.99 -6.66 11.98 -7 13 C-7.91356827 9.91670708 -8.08225564 7.20797012 -8 4 C-8 3.01 -8 2.02 -8 1 C-7.34 1.33 -6.68 1.66 -6 2 C-6 2.66 -6 3.32 -6 4 C-5.01 3.34 -4.02 2.68 -3 2 C-2.01 2 -1.02 2 0 2 C0 1.34 0 0.68 0 0 Z " fill="#232425" transform="translate(409,212)"/>
<path d="M0 0 C2.31 0.66 4.62 1.32 7 2 C5.6875 4 5.6875 4 4 6 C3.01 6 2.02 6 1 6 C1 6.66 1 7.32 1 8 C-1.97 7.505 -1.97 7.505 -5 7 C-3.35 4.69 -1.7 2.38 0 0 Z " fill="#050706" transform="translate(234,210)"/>
<path d="M0 0 C0.66 0 1.32 0 2 0 C2 0.99 2 1.98 2 3 C5.465 2.505 5.465 2.505 9 2 C8.01 4.64 7.02 7.28 6 10 C3 9 3 9 1.3125 6.125 C0 3 0 3 0 0 Z " fill="#2E2F2F" transform="translate(195,275)"/>
<path d="M0 0 C0.66 0.33 1.32 0.66 2 1 C1.67 1.99 1.34 2.98 1 4 C1.33 4.66 1.66 5.32 2 6 C0.68 6 -0.64 6 -2 6 C-2 6.66 -2 7.32 -2 8 C-5.37992169 7.46228519 -8.68737889 6.85696068 -12 6 C-10.04669132 4.96958487 -8.08718472 3.9509107 -6.125 2.9375 C-5.03445313 2.36902344 -3.94390625 1.80054688 -2.8203125 1.21484375 C-1.42425781 0.61349609 -1.42425781 0.61349609 0 0 Z " fill="#3F3F3F" transform="translate(401,253)"/>
<path d="M0 0 C0.99 0.33 1.98 0.66 3 1 C1.7508258 4.45925163 0.32472205 7.14693203 -2 10 C-4.475 9.01 -4.475 9.01 -7 8 C-5.7260411 5.96166576 -4.38938077 3.96147874 -3 2 C-2.34 2 -1.68 2 -1 2 C-0.67 1.34 -0.34 0.68 0 0 Z " fill="#333333" transform="translate(122,291)"/>
<path d="M0 0 C1.32 0.33 2.64 0.66 4 1 C3.49339844 1.90492188 3.49339844 1.90492188 2.9765625 2.828125 C2.53054688 3.62734375 2.08453125 4.4265625 1.625 5.25 C1.18414062 6.03890625 0.74328125 6.8278125 0.2890625 7.640625 C-0.85747823 9.73914197 -1.94649552 11.8536077 -3 14 C-4 9.25 -4 9.25 -4 7 C-4.66 6.01 -5.32 5.02 -6 4 C-4.35 3.67 -2.7 3.34 -1 3 C-0.67 2.01 -0.34 1.02 0 0 Z " fill="#3A3C3C" transform="translate(323,216)"/>
<path d="M0 0 C1.2065625 0.0309375 1.2065625 0.0309375 2.4375 0.0625 C2.1075 2.0425 1.7775 4.0225 1.4375 6.0625 C0.7775 6.0625 0.1175 6.0625 -0.5625 6.0625 C-0.8925 6.7225 -1.2225 7.3825 -1.5625 8.0625 C-2.5525 8.0625 -3.5425 8.0625 -4.5625 8.0625 C-3.54737544 0.08652135 -3.54737544 0.08652135 0 0 Z " fill="#252625" transform="translate(101.5625,187.9375)"/>
<path d="M0 0 C0.45375 0.66 0.9075 1.32 1.375 2 C1.91125 2.66 2.4475 3.32 3 4 C3.66 4 4.32 4 5 4 C4.67 4.99 4.34 5.98 4 7 C3.2575 7.144375 2.515 7.28875 1.75 7.4375 C-0.52027739 7.90187492 -2.75759479 8.41863569 -5 9 C-5.33 8.34 -5.66 7.68 -6 7 C-5.34 6.34 -4.68 5.68 -4 5 C-4 4.34 -4 3.68 -4 3 C-2.68 2.67 -1.36 2.34 0 2 C0 1.34 0 0.68 0 0 Z " fill="#090A09" transform="translate(179,315)"/>
<path d="M0 0 C0.33 0 0.66 0 1 0 C1.37815631 4.37243229 0.34305827 6.65147145 -2 10.3125 C-2.556875 11.19550781 -3.11375 12.07851562 -3.6875 12.98828125 C-4.120625 13.65214844 -4.55375 14.31601563 -5 15 C-5.66 13.68 -6.32 12.36 -7 11 C-6.01 10.01 -5.02 9.02 -4 8 C-4.66 7.67 -5.32 7.34 -6 7 C-6 6.34 -6 5.68 -6 5 C-5.34 5 -4.68 5 -4 5 C-4 4.34 -4 3.68 -4 3 C-3.01 3 -2.02 3 -1 3 C-0.67 2.01 -0.34 1.02 0 0 Z " fill="#404243" transform="translate(188,234)"/>
<path d="M0 0 C2.0625 0.4375 2.0625 0.4375 4 1 C3.01 1.495 3.01 1.495 2 2 C1.34444881 4.52733235 1.34444881 4.52733235 1 7 C0.34 7 -0.32 7 -1 7 C-1 7.99 -1 8.98 -1 10 C-1.99 10.33 -2.98 10.66 -4 11 C-4.75 9.375 -4.75 9.375 -5 7 C-3.50594347 4.4601039 -2.09462345 2.09462345 0 0 Z " fill="#0A0A0B" transform="translate(173,214)"/>
<path d="M0 0 C0.33 1.65 0.66 3.3 1 5 C0.34 5 -0.32 5 -1 5 C-1.33 5.66 -1.66 6.32 -2 7 C-2.66 7 -3.32 7 -4 7 C-4.33 6.34 -4.66 5.68 -5 5 C-7.01669827 3.86649466 -7.01669827 3.86649466 -9 3 C-6.38997624 -0.48003168 -4.1689578 -0.27793052 0 0 Z " fill="#070807" transform="translate(230,208)"/>
<path d="M0 0 C1.32 0.33 2.64 0.66 4 1 C-0.455 4.465 -0.455 4.465 -5 8 C-5.99 6.68 -6.98 5.36 -8 4 C-7.67 3.34 -7.34 2.68 -7 2 C-5.00714063 1.62633887 -3.00636471 1.29259485 -1 1 C-0.67 0.67 -0.34 0.34 0 0 Z " fill="#373936" transform="translate(415,255)"/>
<path d="M0 0 C-0.66 0 -1.32 0 -2 0 C-1.67 1.98 -1.34 3.96 -1 6 C-2.32 6 -3.64 6 -5 6 C-5.66 6.66 -6.32 7.32 -7 8 C-7 6.02 -7 4.04 -7 2 C-7.66 1.67 -8.32 1.34 -9 1 C-3.375 -1.125 -3.375 -1.125 0 0 Z " fill="#0C0E0F" transform="translate(108,170)"/>
<path d="M0 0 C0.66 0.33 1.32 0.66 2 1 C1.835 1.5775 1.67 2.155 1.5 2.75 C0.85537969 5.26664369 0.85537969 5.26664369 1 9 C0.01 10.485 0.01 10.485 -1 12 C-4.03687636 7.62689805 -4.03687636 7.62689805 -3.875 4.875 C-2.89123821 2.76693901 -1.74671337 1.51888119 0 0 Z " fill="#111212" transform="translate(328,203)"/>
<path d="M0 0 C7.43378943 -0.33452052 13.19877155 -0.13902852 20 3 C19.39671875 3.14308594 18.7934375 3.28617188 18.171875 3.43359375 C15.6807804 4.08324972 13.37418802 5.01075499 11 6 C10.67 4.68 10.34 3.36 10 2 C6.7 1.67 3.4 1.34 0 1 C0 0.67 0 0.34 0 0 Z " fill="#79797A" transform="translate(109,167)"/>
<path d="M0 0 C2.5 1.1875 2.5 1.1875 4.5 3.1875 C4.625 6.8125 4.625 6.8125 4.5 10.1875 C4.17 10.1875 3.84 10.1875 3.5 10.1875 C3.5 8.2075 3.5 6.2275 3.5 4.1875 C3.17 4.8475 2.84 5.5075 2.5 6.1875 C0.85 6.1875 -0.8 6.1875 -2.5 6.1875 C-2.17 4.5375 -1.84 2.8875 -1.5 1.1875 C-2.49 0.8575 -3.48 0.5275 -4.5 0.1875 C-2.5 -0.8125 -2.5 -0.8125 0 0 Z " fill="#4A4C4B" transform="translate(307.5,192.8125)"/>
<path d="M0 0 C2 1 2 1 4 4 C3.34 4 2.68 4 2 4 C2 4.99 2 5.98 2 7 C2.99 7 3.98 7 5 7 C5 8.32 5 9.64 5 11 C2.525 10.01 2.525 10.01 0 9 C-1.125 2.25 -1.125 2.25 0 0 Z " fill="#353537" transform="translate(65,311)"/>
<path d="M0 0 C1.78257471 3.23091667 2 5.32518002 2 9 C2.66 9 3.32 9 4 9 C3.67 9.66 3.34 10.32 3 11 C0.4375 11.625 0.4375 11.625 -2 12 C-2.33 12.99 -2.66 13.98 -3 15 C-2.35812082 9.86496656 -1.31727753 5.0056546 0 0 Z " fill="#494949" transform="translate(77,279)"/>
<path d="M0 0 C0.33 0 0.66 0 1 0 C1.39180108 1.57925975 1.76280736 3.16368794 2.125 4.75 C2.33382812 5.63171875 2.54265625 6.5134375 2.7578125 7.421875 C3.03870971 10.41207109 2.75474423 11.58328639 1 14 C-0.98 14.99 -0.98 14.99 -3 16 C-2.01 10.72 -1.02 5.44 0 0 Z " fill="#39393B" transform="translate(122,264)"/>
<path d="M0 0 C2.64 0.33 5.28 0.66 8 1 C7.34 2.65 6.68 4.3 6 6 C3.03 5.505 3.03 5.505 0 5 C-0.33 4.01 -0.66 3.02 -1 2 C-0.67 1.34 -0.34 0.68 0 0 Z " fill="#0B0B0B" transform="translate(82,183)"/>
<path d="M0 0 C3.71323586 0.50178863 5.66276162 1.02533297 8 4 C8.51171875 6.26171875 8.51171875 6.26171875 8.6875 8.6875 C8.78611328 9.89986328 8.78611328 9.89986328 8.88671875 11.13671875 C8.92410156 11.75160156 8.96148437 12.36648437 9 13 C7.35 11.68 5.7 10.36 4 9 C4.33 8.01 4.66 7.02 5 6 C4.33903214 3.34754398 4.33903214 3.34754398 3 1 C2.01 0.67 1.02 0.34 0 0 Z " fill="#353736" transform="translate(259,199)"/>
<path d="M0 0 C0.99 0.66 1.98 1.32 3 2 C2.8125 3.875 2.8125 3.875 2 6 C-0.44316271 7.25290395 -2.24525395 8 -5 8 C-5 7.34 -5 6.68 -5 6 C-4.34 6 -3.68 6 -3 6 C-2.87625 5.38125 -2.7525 4.7625 -2.625 4.125 C-2 2 -2 2 0 0 Z " fill="#080909" transform="translate(96,305)"/>
<path d="M0 0 C1.98 0 3.96 0 6 0 C5.67 2.31 5.34 4.62 5 7 C4.01 6.67 3.02 6.34 2 6 C-0.14255793 6.38932856 -0.14255793 6.38932856 -2 7 C-1.67 6.401875 -1.34 5.80375 -1 5.1875 C0.20787988 2.94613529 0.20787988 2.94613529 0 0 Z " fill="#181818" transform="translate(177,311)"/>
<path d="M0 0 C0.99 0 1.98 0 3 0 C3 0.66 3 1.32 3 2 C2.34 2 1.68 2 1 2 C0.71125 2.598125 0.4225 3.19625 0.125 3.8125 C-1 6 -1 6 -3 9 C-3.66 9 -4.32 9 -5 9 C-5.33 9.66 -5.66 10.32 -6 11 C-6.6875 9.1875 -6.6875 9.1875 -7 7 C-5.75 5.25 -5.75 5.25 -4 4 C-3.01 4 -2.02 4 -1 4 C-0.67 2.68 -0.34 1.36 0 0 Z " fill="#404241" transform="translate(229,273)"/>
<path d="M0 0 C-1.02529349 2.05058698 -2.22114846 3.76774402 -3.5625 5.625 C-4.01753906 6.25664062 -4.47257813 6.88828125 -4.94140625 7.5390625 C-5.29074219 8.02117187 -5.64007813 8.50328125 -6 9 C-7.76462683 5.91190305 -8 4.76687864 -8 1 C-5.29120665 -0.35439668 -2.99066732 -0.06501451 0 0 Z " fill="#414144" transform="translate(195,273)"/>
<path d="M0 0 C0.33 0.66 0.66 1.32 1 2 C-0.375 3.5 -0.375 3.5 -2 5 C-2.66 5 -3.32 5 -4 5 C-4.33 5.99 -4.66 6.98 -5 8 C-5.33 7.01 -5.66 6.02 -6 5 C-6.99 4.67 -7.98 4.34 -9 4 C-8 2 -8 2 -6.15234375 1.3671875 C-5.05599609 1.12355469 -5.05599609 1.12355469 -3.9375 0.875 C-3.20402344 0.70742187 -2.47054687 0.53984375 -1.71484375 0.3671875 C-1.14894531 0.24601563 -0.58304688 0.12484375 0 0 Z " fill="#060606" transform="translate(136,202)"/>
<path d="M0 0 C0.99 0.33 1.98 0.66 3 1 C3.33 2.65 3.66 4.3 4 6 C3.01 6 2.02 6 1 6 C0.67 6.66 0.34 7.32 0 8 C-1.65 7.67 -3.3 7.34 -5 7 C-4.67 6.34 -4.34 5.68 -4 5 C-3.34 5 -2.68 5 -2 5 C-1.7834375 4.0409375 -1.7834375 4.0409375 -1.5625 3.0625 C-1 1 -1 1 0 0 Z " fill="#161818" transform="translate(107,295)"/>
<path d="M0 0 C2.97 0.495 2.97 0.495 6 1 C5.01 1.495 5.01 1.495 4 2 C4 3.32 4 4.64 4 6 C0.25 7.125 0.25 7.125 -2 6 C-1.34 4.02 -0.68 2.04 0 0 Z " fill="#0C0C0D" transform="translate(156,287)"/>
<path d="M0 0 C0.99 0.33 1.98 0.66 3 1 C3 3.97 3 6.94 3 10 C2.34 10 1.68 10 1 10 C-1.74375671 7.04518508 -2 6.22528092 -2 2 C-1.34 2 -0.68 2 0 2 C0 1.34 0 0.68 0 0 Z " fill="#080808" transform="translate(228,255)"/>
<path d="M0 0 C0.66 0 1.32 0 2 0 C0.25 4.875 0.25 4.875 -2 6 C-2.33 6.99 -2.66 7.98 -3 9 C-3.99 8.67 -4.98 8.34 -6 8 C-6 6.35 -6 4.7 -6 3 C-4.35 3 -2.7 3 -1 3 C-0.67 2.01 -0.34 1.02 0 0 Z " fill="#070908" transform="translate(351,211)"/>
<path d="M0 0 C1.32 0.33 2.64 0.66 4 1 C3.01 1 2.02 1 1 1 C1.99 2.32 2.98 3.64 4 5 C3.67 5.66 3.34 6.32 3 7 C0.69 7 -1.62 7 -4 7 C-4 6.01 -4 5.02 -4 4 C-3.34 4 -2.68 4 -2 4 C-2 3.34 -2 2.68 -2 2 C-1.34 2 -0.68 2 0 2 C0 1.34 0 0.68 0 0 Z " fill="#1C1C1C" transform="translate(334,192)"/>
<path d="M0 0 C0.66 0 1.32 0 2 0 C1.38722388 2.96175123 0.74627478 4.38058783 -1 7 C-0.01 7.33 0.98 7.66 2 8 C2 8.99 2 9.98 2 11 C0.68 10.67 -0.64 10.34 -2 10 C-3.04127245 6.6868604 -3.18574123 5.39801692 -1.6875 2.1875 C-1.130625 1.465625 -0.57375 0.74375 0 0 Z M0 8 C1 10 1 10 1 10 Z " fill="#080808" transform="translate(212,304)"/>
<path d="M0 0 C2.875 0.25 2.875 0.25 6 1 C7.4375 2.8125 7.4375 2.8125 8 5 C7.625 7.25 7.625 7.25 7 9 C7 8.01 7 7.02 7 6 C6.01 6 5.02 6 4 6 C4 5.34 4 4.68 4 4 C1.525 3.01 1.525 3.01 -1 2 C-0.67 1.34 -0.34 0.68 0 0 Z " fill="#383939" transform="translate(406,286)"/>
<path d="M0 0 C0.5534764 2.07553648 1 3.84365964 1 6 C0.01 6 -0.98 6 -2 6 C-3.68798827 7.43750191 -3.68798827 7.43750191 -5 9 C-5 6.69 -5 4.38 -5 2 C-3.35 1.34 -1.7 0.68 0 0 Z " fill="#080809" transform="translate(128,257)"/>
<path d="M0 0 C1.32 0.66 2.64 1.32 4 2 C1.69 4.31 -0.62 6.62 -3 9 C-4 5 -4 5 -4 3 C-3.34 3 -2.68 3 -2 3 C-2 2.34 -2 1.68 -2 1 C-1.34 0.67 -0.68 0.34 0 0 Z " fill="#484949" transform="translate(177,250)"/>
<path d="M0 0 C5.57142857 5.14285714 5.57142857 5.14285714 6 9 C1.9630133 7.20578369 -0.64480474 5.79448125 -3 2 C-2.01 1.34 -1.02 0.68 0 0 Z " fill="#3A3A3A" transform="translate(124,241)"/>
<path d="M0 0 C0.33 0.66 0.66 1.32 1 2 C0.34 2 -0.32 2 -1 2 C-0.896875 2.763125 -0.79375 3.52625 -0.6875 4.3125 C-0.8421875 5.6428125 -0.8421875 5.6428125 -1 7 C-3.25 8.6875 -3.25 8.6875 -6 10 C-6.763125 10.391875 -7.52625 10.78375 -8.3125 11.1875 C-8.869375 11.455625 -9.42625 11.72375 -10 12 C-9.67 11.01 -9.34 10.02 -9 9 C-8.34 9 -7.68 9 -7 9 C-6.690625 8.38125 -6.38125 7.7625 -6.0625 7.125 C-5.375 5.75 -4.6875 4.375 -4 3 C-3.34 3 -2.68 3 -2 3 C-2 2.34 -2 1.68 -2 1 C-1.34 0.67 -0.68 0.34 0 0 Z " fill="#565656" transform="translate(83,181)"/>
<path d="M0 0 C0.33 0.99 0.66 1.98 1 3 C-0.32 4.32 -1.64 5.64 -3 7 C-3.66 6.67 -4.32 6.34 -5 6 C-4.67 5.01 -4.34 4.02 -4 3 C-4.99 2.67 -5.98 2.34 -7 2 C-7.33 2.66 -7.66 3.32 -8 4 C-8.66 3.34 -9.32 2.68 -10 2 C-8.7090864 1.66376204 -7.41723903 1.33110751 -6.125 1 C-5.40570313 0.814375 -4.68640625 0.62875 -3.9453125 0.4375 C-2 0 -2 0 0 0 Z " fill="#2D2F2E" transform="translate(177,312)"/>
<path d="M0 0 C1.98 0.99 3.96 1.98 6 3 C6 3.66 6 4.32 6 5 C3.69 5.33 1.38 5.66 -1 6 C-1 2 -1 2 0 0 Z M6 0 C6.33 0.66 6.66 1.32 7 2 C6.34 1.67 5.68 1.34 5 1 C5.33 0.67 5.66 0.34 6 0 Z " fill="#040404" transform="translate(228,306)"/>
<path d="M0 0 C0.66 0.66 1.32 1.32 2 2 C1.625 5.125 1.625 5.125 1 8 C-0.98 6.35 -2.96 4.7 -5 3 C-3 1 -3 1 0 0 Z " fill="#363639" transform="translate(261,257)"/>
<path d="M0 0 C0.99 0 1.98 0 3 0 C2.67 1.98 2.34 3.96 2 6 C0.68 5.34 -0.64 4.68 -2 4 C-2.66 5.65 -3.32 7.3 -4 9 C-4.66 8.67 -5.32 8.34 -6 8 C-5.07456291 6.65826597 -4.13422595 5.32679841 -3.1875 4 C-2.66542969 3.2575 -2.14335937 2.515 -1.60546875 1.75 C-0.81076172 0.88375 -0.81076172 0.88375 0 0 Z " fill="#3B3D3C" transform="translate(324,200)"/>
<path d="M0 0 C0.66 0.33 1.32 0.66 2 1 C1.34 3.31 0.68 5.62 0 8 C-1.32 7.34 -2.64 6.68 -4 6 C-4 5.01 -4 4.02 -4 3 C-2 1.3125 -2 1.3125 0 0 Z " fill="#131413" transform="translate(420,247)"/>
<path d="M0 0 C0.66 1.32 1.32 2.64 2 4 C1.01 5.485 1.01 5.485 0 7 C-3.125 7.1875 -3.125 7.1875 -6 7 C-5.67 6.01 -5.34 5.02 -5 4 C-3.66666667 3.66666667 -2.33333333 3.33333333 -1 3 C-0.67 2.01 -0.34 1.02 0 0 Z " fill="#020403" transform="translate(356,290)"/>
<path d="M0 0 C1.95216435 1.95216435 2.84826645 3.53199953 4 6 C3.01 6.495 3.01 6.495 2 7 C1.67 6.34 1.34 5.68 1 5 C-2.11785113 5.64644661 -2.11785113 5.64644661 -3 8 C-3.99 7.01 -4.98 6.02 -6 5 C-5.38125 4.731875 -4.7625 4.46375 -4.125 4.1875 C-1.7004767 3.04443152 -1.7004767 3.04443152 0 0 Z " fill="#040605" transform="translate(292,227)"/>
<path d="M0 0 C0 0.99 0 1.98 0 3 C0.31088368 4.67099977 0.64080332 6.33871537 1 8 C-0.65 7.67 -2.3 7.34 -4 7 C-4.33 6.01 -4.66 5.02 -5 4 C-3.35 2.68 -1.7 1.36 0 0 Z " fill="#040605" transform="translate(319,212)"/>
<path d="M0 0 C2 1 2 1 3 3 C1.68 2.67 0.36 2.34 -1 2 C-0.67 1.34 -0.34 0.68 0 0 Z M-2 3 C-1.34 3.33 -0.68 3.66 0 4 C-0.33 4.66 -0.66 5.32 -1 6 C0.65 6 2.3 6 4 6 C4 6.33 4 6.66 4 7 C-0.455 7.495 -0.455 7.495 -5 8 C-4.01 6.35 -3.02 4.7 -2 3 Z " fill="#2D2D2D" transform="translate(194,313)"/>
<path d="M0 0 C0.99 0 1.98 0 3 0 C3.66 2.31 4.32 4.62 5 7 C4.01 7.495 4.01 7.495 3 8 C2.01 7.67 1.02 7.34 0 7 C0.20625 6.38125 0.4125 5.7625 0.625 5.125 C0.74875 4.42375 0.8725 3.7225 1 3 C0.34 2.34 -0.32 1.68 -1 1 C-0.67 0.67 -0.34 0.34 0 0 Z " fill="#090A0B" transform="translate(67,311)"/>
<path d="M0 0 C0.66 0.33 1.32 0.66 2 1 C1.01 2.485 1.01 2.485 0 4 C0.33 4.66 0.66 5.32 1 6 C-0.32 6 -1.64 6 -3 6 C-3 7.65 -3 9.3 -3 11 C-3.99 11 -4.98 11 -6 11 C-4.74194623 6.49197399 -3.09592835 3.5087188 0 0 Z " fill="#6A6B6B" transform="translate(255,254)"/>
<path d="M0 0 C0.99 0.99 1.98 1.98 3 3 C2.6875 6.1875 2.6875 6.1875 2 9 C1.01 9 0.02 9 -1 9 C-1.99 9.495 -1.99 9.495 -3 10 C-2.01 6.7 -1.02 3.4 0 0 Z " fill="#404241" transform="translate(283,237)"/>
<path d="M0 0 C0.99 0.33 1.98 0.66 3 1 C2.67 2.98 2.34 4.96 2 7 C0.35 7 -1.3 7 -3 7 C-2.25 2.25 -2.25 2.25 0 0 Z " fill="#2B2C2B" transform="translate(87,177)"/>
<path d="M0 0 C-0.99 0.495 -0.99 0.495 -2 1 C-2 1.66 -2 2.32 -2 3 C-1.34 3.66 -0.68 4.32 0 5 C-1.98 5.99 -1.98 5.99 -4 7 C-4.33 5.02 -4.66 3.04 -5 1 C-6.65 1 -8.3 1 -10 1 C-6.1496895 -1.56687367 -4.41430237 -0.83288724 0 0 Z " fill="#333435" transform="translate(111,169)"/>
<path d="M0 0 C0 0.66 0 1.32 0 2 C0.66 2.33 1.32 2.66 2 3 C0.02 3.66 -1.96 4.32 -4 5 C-4.66 3.35 -5.32 1.7 -6 0 C-3.50907189 -1.24546405 -2.58919267 -0.7767578 0 0 Z " fill="#0A0A0A" transform="translate(397,260)"/>
<path d="M0 0 C1.9375 0.8125 1.9375 0.8125 4 2 C4.33 2.99 4.66 3.98 5 5 C4.01 6.485 4.01 6.485 3 8 C3 7.34 3 6.68 3 6 C1.68 5.67 0.36 5.34 -1 5 C-0.67 3.35 -0.34 1.7 0 0 Z " fill="#020403" transform="translate(88,233)"/>
<path d="M0 0 C0.25 2.3125 0.25 2.3125 0 5 C-2 6.8125 -2 6.8125 -4 8 C-5 7 -5 7 -5.0625 4.4375 C-5.041875 3.633125 -5.02125 2.82875 -5 2 C-1.125 0 -1.125 0 0 0 Z " fill="#0D0C0C" transform="translate(188,220)"/>
<path d="M0 0 C0 2.31 0 4.62 0 7 C-0.99 6.67 -1.98 6.34 -3 6 C-3 5.01 -3 4.02 -3 3 C-4.32 3.33 -5.64 3.66 -7 4 C-6.67 3.01 -6.34 2.02 -6 1 C-4 0 -4 0 0 0 Z " fill="#030303" transform="translate(149,321)"/>
<path d="M0 0 C0 1.66666667 0 3.33333333 0 5 C-5.75 3.25 -5.75 3.25 -8 1 C-5.29120665 -0.35439668 -2.99066732 -0.06501451 0 0 Z " fill="#070707" transform="translate(387,261)"/>
<path d="M0 0 C-1.33333333 0.66666667 -2.66666667 1.33333333 -4 2 C-4.639375 2.37125 -5.27875 2.7425 -5.9375 3.125 C-8.41109822 4.17440531 -10.33953538 4.14780359 -13 4 C-9.21303116 -0.35501417 -5.55636855 -0.1262811 0 0 Z " fill="#4C4C4C" transform="translate(177,213)"/>
<path d="M0 0 C0.33 0.99 0.66 1.98 1 3 C-0.32 4.32 -1.64 5.64 -3 7 C-3.99 6.67 -4.98 6.34 -6 6 C-3.375 1.125 -3.375 1.125 0 0 Z " fill="#434545" transform="translate(255,273)"/>
<path d="M0 0 C0.66 0.66 1.32 1.32 2 2 C0.88121617 3.17262904 -0.24523051 4.33795138 -1.375 5.5 C-2.00148438 6.1496875 -2.62796875 6.799375 -3.2734375 7.46875 C-5 9 -5 9 -7 9 C-7 8.34 -7 7.68 -7 7 C-6.34 7 -5.68 7 -5 7 C-4.731875 6.401875 -4.46375 5.80375 -4.1875 5.1875 C-3.01506533 3.02775192 -1.80630718 1.64209744 0 0 Z " fill="#636666" transform="translate(421,235)"/>
<path d="M0 0 C0.33 0.99 0.66 1.98 1 3 C1.66 2.67 2.32 2.34 3 2 C3.625 3.875 3.625 3.875 4 6 C3.34 6.66 2.68 7.32 2 8 C-0.125 7.625 -0.125 7.625 -2 7 C-1.34 4.69 -0.68 2.38 0 0 Z " fill="#404241" transform="translate(286,230)"/>
<path d="M0 0 C0.66 0 1.32 0 2 0 C1.58578031 4.83256305 -0.46413986 6.82679218 -4 10 C-4.66 9.67 -5.32 9.34 -6 9 C-5.05016642 7.49460339 -4.08988109 5.99579653 -3.125 4.5 C-2.59132813 3.6646875 -2.05765625 2.829375 -1.5078125 1.96875 C-0.76144531 0.99421875 -0.76144531 0.99421875 0 0 Z " fill="#4F4F4F" transform="translate(428,225)"/>
<path d="M0 0 C0.33 1.32 0.66 2.64 1 4 C-3.625 6.125 -3.625 6.125 -7 5 C-7 4.01 -7 3.02 -7 2 C-5.824375 1.7834375 -5.824375 1.7834375 -4.625 1.5625 C-2.03578982 1.12201075 -2.03578982 1.12201075 0 0 Z " fill="#313232" transform="translate(141,331)"/>
<path d="M0 0 C0.99 0 1.98 0 3 0 C3 3.63 3 7.26 3 11 C2.67 11 2.34 11 2 11 C1.814375 9.63875 1.814375 9.63875 1.625 8.25 C1.07890323 5.41029677 0.42736197 3.47409409 -1 1 C-0.67 0.67 -0.34 0.34 0 0 Z " fill="#5E5E60" transform="translate(363,244)"/>
<path d="M0 0 C2 1 2 1 3 2 C3.66 1.34 4.32 0.68 5 0 C5.33 0.66 5.66 1.32 6 2 C5.0625 4.125 5.0625 4.125 4 6 C2.68 5.34 1.36 4.68 0 4 C0 2.68 0 1.36 0 0 Z " fill="#0B0D0C" transform="translate(378,229)"/>
<path d="M0 0 C0.66 0.33 1.32 0.66 2 1 C2 1.99 2 2.98 2 4 C1.34 4 0.68 4 0 4 C0.33 4.99 0.66 5.98 1 7 C-0.32 7 -1.64 7 -3 7 C-2.67 5.35 -2.34 3.7 -2 2 C-1.34 2 -0.68 2 0 2 C0 1.34 0 0.68 0 0 Z " fill="#020403" transform="translate(338,224)"/>
<path d="M0 0 C0.33 0 0.66 0 1 0 C1 2.31 1 4.62 1 7 C2.32 7.66 3.64 8.32 5 9 C5 9.99 5 10.98 5 12 C1.125 10.25 1.125 10.25 0 8 C-0.13415472 5.3276379 -0.04318541 2.67749512 0 0 Z " fill="#4D4F4F" transform="translate(64,214)"/>
<path d="M0 0 C-1.98 0.99 -1.98 0.99 -4 2 C-4 2.66 -4 3.32 -4 4 C-5.32 3.34 -6.64 2.68 -8 2 C-8 1.34 -8 0.68 -8 0 C-5.13822943 -1.43088528 -3.06624227 -0.59991697 0 0 Z " fill="#323334" transform="translate(398,200)"/>
<path d="M0 0 C1.32 0 2.64 0 4 0 C3.625 2.4375 3.625 2.4375 3 5 C2.01 5.495 2.01 5.495 1 6 C1 5.34 1 4.68 1 4 C0.34 4 -0.32 4 -1 4 C-0.67 2.68 -0.34 1.36 0 0 Z " fill="#343535" transform="translate(341,230)"/>
<path d="M0 0 C1.32 0.66 2.64 1.32 4 2 C3.67 2.99 3.34 3.98 3 5 C2.34 5 1.68 5 1 5 C0.67 5.66 0.34 6.32 0 7 C0 6.34 0 5.68 0 5 C-0.66 4.67 -1.32 4.34 -2 4 C-1.34 2.68 -0.68 1.36 0 0 Z " fill="#060807" transform="translate(211,216)"/>
<path d="M0 0 C0.89203125 0.01804688 1.7840625 0.03609375 2.703125 0.0546875 C3.71632812 0.08949219 3.71632812 0.08949219 4.75 0.125 C4.75 0.455 4.75 0.785 4.75 1.125 C3.5125 1.24875 2.275 1.3725 1 1.5 C-2.1262197 1.88246305 -4.53879237 2.43049523 -7.25 4.125 C-7.91 3.465 -8.57 2.805 -9.25 2.125 C-6.03817851 0.21891902 -3.71117397 -0.09766247 0 0 Z " fill="#707170" transform="translate(227.25,206.875)"/>
<path d="M0 0 C0.33 0.66 0.66 1.32 1 2 C0.67 2.66 0.34 3.32 0 4 C0.66 4 1.32 4 2 4 C1.67 5.65 1.34 7.3 1 9 C-0.32 9 -1.64 9 -3 9 C-2.01 6.03 -1.02 3.06 0 0 Z " fill="#4A4A4A" transform="translate(68,201)"/>
<path d="M0 0 C1.32 0 2.64 0 4 0 C4 0.66 4 1.32 4 2 C-0.47058824 6 -0.47058824 6 -3 6 C-1.125 1.125 -1.125 1.125 0 0 Z " fill="#2B2D2C" transform="translate(302,194)"/>
<path d="M0 0 C0.99 0.33 1.98 0.66 3 1 C2.67 1.99 2.34 2.98 2 4 C-1.5625 5.1875 -1.5625 5.1875 -5 6 C-3.35 4.02 -1.7 2.04 0 0 Z " fill="#3C3C3C" transform="translate(393,188)"/>
<path d="M0 0 C0.99 0.33 1.98 0.66 3 1 C3 2.98 3 4.96 3 7 C2.34 6.01 1.68 5.02 1 4 C-2.08365871 3.7497843 -2.08365871 3.7497843 -5 4 C-3.36587557 2.29159719 -2.13093906 1.06546953 0 0 Z " fill="#47484A" transform="translate(98,170)"/>
<path d="M0 0 C0.66 1.32 1.32 2.64 2 4 C-2.455 5.485 -2.455 5.485 -7 7 C-4.66666667 4.66666667 -2.33333333 2.33333333 0 0 Z " fill="#484A49" transform="translate(117,218)"/>
<path d="M0 0 C0.33 0 0.66 0 1 0 C1.21755666 5.4389165 1.10428384 9.87080814 -1 15 C-1.33 15 -1.66 15 -2 15 C-2.04241723 12.66705225 -2.04092937 10.33297433 -2 8 C-1.67 7.67 -1.34 7.34 -1 7 C-0.63239269 4.67182036 -0.29758419 2.3381615 0 0 Z " fill="#868786" transform="translate(358,202)"/>
<path d="M0 0 C-0.3125 2.375 -0.3125 2.375 -1 5 C-1.99 5.66 -2.98 6.32 -4 7 C-4.6875 5.1875 -4.6875 5.1875 -5 3 C-3.38441968 0.84589291 -2.74502455 0 0 0 Z " fill="#2C2C2D" transform="translate(188,279)"/>
<path d="M0 0 C1.98 0.66 3.96 1.32 6 2 C5.67 2.66 5.34 3.32 5 4 C2.4375 4.625 2.4375 4.625 0 5 C-0.5625 3.0625 -0.5625 3.0625 -1 1 C-0.67 0.67 -0.34 0.34 0 0 Z " fill="#090B0A" transform="translate(249,271)"/>
<path d="M0 0 C-0.33 1.65 -0.66 3.3 -1 5 C-3.31 4.67 -5.62 4.34 -8 4 C-2 0 -2 0 0 0 Z " fill="#414140" transform="translate(338,259)"/>
<path d="M0 0 C0.99 0.66 1.98 1.32 3 2 C2.34 3.32 1.68 4.64 1 6 C-0.32 5.34 -1.64 4.68 -3 4 C-2.01 2.68 -1.02 1.36 0 0 Z " fill="#262826" transform="translate(115,235)"/>
<path d="M0 0 C0.66 0.33 1.32 0.66 2 1 C2.625 3.5625 2.625 3.5625 3 6 C1.68 6 0.36 6 -1 6 C-1.625 4.125 -1.625 4.125 -2 2 C-1.34 1.34 -0.68 0.68 0 0 Z " fill="#242524" transform="translate(70,220)"/>
<path d="M0 0 C0.66 0.33 1.32 0.66 2 1 C-0.475 4.465 -0.475 4.465 -3 8 C-3.66 6.68 -4.32 5.36 -5 4 C-4.34 3.34 -3.68 2.68 -3 2 C-2.01 2 -1.02 2 0 2 C0 1.34 0 0.68 0 0 Z " fill="#58595C" transform="translate(409,212)"/>
<path d="M0 0 C1.67542976 0.28604898 3.34385343 0.61781233 5 1 C5 1.99 5 2.98 5 4 C3.35 4 1.7 4 0 4 C-0.33 3.01 -0.66 2.02 -1 1 C-0.67 0.67 -0.34 0.34 0 0 Z " fill="#010302" transform="translate(118,175)"/>
<path d="M0 0 C0.66 0.33 1.32 0.66 2 1 C1.67 2.98 1.34 4.96 1 7 C-0.32 7.33 -1.64 7.66 -3 8 C-3 7.34 -3 6.68 -3 6 C-2.34 6 -1.68 6 -1 6 C-0.67 4.02 -0.34 2.04 0 0 Z " fill="#080A0A" transform="translate(98,173)"/>
<path d="M0 0 C0.99 0.33 1.98 0.66 3 1 C2.54625 1.433125 2.0925 1.86625 1.625 2.3125 C-0.20024334 4.10798342 -0.20024334 4.10798342 -2 7 C-2.66 5.68 -3.32 4.36 -4 3 C-2.1875 1.4375 -2.1875 1.4375 0 0 Z " fill="#272727" transform="translate(374,260)"/>
<path d="M0 0 C1.65 1.65 3.3 3.3 5 5 C4.34 5.66 3.68 6.32 3 7 C2.34 6.67 1.68 6.34 1 6 C1 5.34 1 4.68 1 4 C0.34 4 -0.32 4 -1 4 C-0.67 2.68 -0.34 1.36 0 0 Z " fill="#0A0C0B" transform="translate(175,245)"/>
<path d="M0 0 C1.32 0.66 2.64 1.32 4 2 C3.0409375 2.433125 3.0409375 2.433125 2.0625 2.875 C-0.15206079 3.82823451 -0.15206079 3.82823451 -1 6 C-1.33 5.01 -1.66 4.02 -2 3 C-1.34 2.01 -0.68 1.02 0 0 Z " fill="#030504" transform="translate(291,222)"/>
<path d="M0 0 C0.99 0.33 1.98 0.66 3 1 C2.6875 2.9375 2.6875 2.9375 2 5 C1.01 5.33 0.02 5.66 -1 6 C-1.33 5.01 -1.66 4.02 -2 3 C-1.34 2.01 -0.68 1.02 0 0 Z " fill="#090A09" transform="translate(261,202)"/>
<path d="M0 0 C8.57142857 -0.14285714 8.57142857 -0.14285714 12 1 C11.67 1.99 11.34 2.98 11 4 C11 3.34 11 2.68 11 2 C10.01 2 9.02 2 8 2 C7.67 2.66 7.34 3.32 7 4 C6.67 3.34 6.34 2.68 6 2 C2.97065509 1.34227572 2.97065509 1.34227572 0 1 C0 0.67 0 0.34 0 0 Z " fill="#545555" transform="translate(339,191)"/>
<path d="M0 0 C2.475 0.99 2.475 0.99 5 2 C4.67 2.66 4.34 3.32 4 4 C-0.47540984 5.26229508 -0.47540984 5.26229508 -3 4 C-2.67 3.01 -2.34 2.02 -2 1 C-1.34 1.33 -0.68 1.66 0 2 C0 1.34 0 0.68 0 0 Z " fill="#101010" transform="translate(170,289)"/>
<path d="M0 0 C0 3.25811062 -0.5522078 5.10441559 -2 8 C-2.99 8.33 -3.98 8.66 -5 9 C-3.7508258 5.54074837 -2.32472205 2.85306797 0 0 Z " fill="#767776" transform="translate(186,263)"/>
<path d="M0 0 C0.99 0.66 1.98 1.32 3 2 C1.02 3.32 -0.96 4.64 -3 6 C-3.66 5.67 -4.32 5.34 -5 5 C-3.35 3.35 -1.7 1.7 0 0 Z " fill="#3C3E3D" transform="translate(348,249)"/>
<path d="M0 0 C1.65 0 3.3 0 5 0 C4.67 1.65 4.34 3.3 4 5 C2 3.625 2 3.625 0 2 C0 1.34 0 0.68 0 0 Z " fill="#1B1C1D" transform="translate(177,246)"/>
<path d="M0 0 C1.29567565 2.5913513 1.34250494 4.12295849 1 7 C-1 9.3125 -1 9.3125 -3 11 C-2.32829194 7.1936543 -1.27253436 3.64793184 0 0 Z " fill="#646465" transform="translate(146,240)"/>
<path d="M0 0 C0.99 0.33 1.98 0.66 3 1 C2.01 2.32 1.02 3.64 0 5 C-1.32 4.67 -2.64 4.34 -4 4 C-2.68 3.34 -1.36 2.68 0 2 C0 1.34 0 0.68 0 0 Z " fill="#434343" transform="translate(108,225)"/>
<path d="M0 0 C0.66 0.33 1.32 0.66 2 1 C0.41641358 4.16717283 -0.45263699 5.73268318 -3.6875 7.3125 C-4.450625 7.539375 -5.21375 7.76625 -6 8 C-5.34 7.01 -4.68 6.02 -4 5 C-3.34 5 -2.68 5 -2 5 C-1.34 3.35 -0.68 1.7 0 0 Z " fill="#757676" transform="translate(395,212)"/>
<path d="M0 0 C0.99 0 1.98 0 3 0 C3.66 1.32 4.32 2.64 5 4 C3.824375 3.9690625 3.824375 3.9690625 2.625 3.9375 C0.01885039 3.81315937 0.01885039 3.81315937 -2 5 C-1.34 3.35 -0.68 1.7 0 0 Z " fill="#111212" transform="translate(129,213)"/>
<path d="M0 0 C0.33 0.99 0.66 1.98 1 3 C1.99 3 2.98 3 4 3 C4 3.99 4 4.98 4 6 C2.35 6 0.7 6 -1 6 C-0.67 4.02 -0.34 2.04 0 0 Z " fill="#2D2F2E" transform="translate(346,208)"/>
<path d="" fill="#FFFFFF" transform="translate(0,0)"/>
<path d="" fill="#FFFFFF" transform="translate(0,0)"/>
<path d="" fill="#FFFFFF" transform="translate(0,0)"/>
<path d="" fill="#FFFFFF" transform="translate(0,0)"/>
<path d="" fill="#FFFFFF" transform="translate(0,0)"/>
<path d="" fill="#FFFFFF" transform="translate(0,0)"/>
<path d="" fill="#FFFFFF" transform="translate(0,0)"/>
<path d="" fill="#FFFFFF" transform="translate(0,0)"/>
<path d="" fill="#FFFFFF" transform="translate(0,0)"/>
<path d="" fill="#FFFFFF" transform="translate(0,0)"/>
<path d="" fill="#FFFFFF" transform="translate(0,0)"/>
<path d="" fill="#FFFFFF" transform="translate(0,0)"/>
<path d="" fill="#FFFFFF" transform="translate(0,0)"/>
<path d="" fill="#FFFFFF" transform="translate(0,0)"/>
<path d="" fill="#FFFFFF" transform="translate(0,0)"/>
<path d="" fill="#FFFFFF" transform="translate(0,0)"/>
<path d="" fill="#FFFFFF" transform="translate(0,0)"/>
<path d="" fill="#FFFFFF" transform="translate(0,0)"/>
<path d="" fill="#FFFFFF" transform="translate(0,0)"/>
<path d="" fill="#FFFFFF" transform="translate(0,0)"/>
<path d="" fill="#FFFFFF" transform="translate(0,0)"/>
<path d="" fill="#FFFFFF" transform="translate(0,0)"/>
<path d="" fill="#FFFFFF" transform="translate(0,0)"/>
<path d="" fill="#FFFFFF" transform="translate(0,0)"/>
<path d="" fill="#FFFFFF" transform="translate(0,0)"/>
<path d="" fill="#FFFFFF" transform="translate(0,0)"/>
<path d="" fill="#FFFFFF" transform="translate(0,0)"/>
<path d="" fill="#FFFFFF" transform="translate(0,0)"/>
<path d="" fill="#FFFFFF" transform="translate(0,0)"/>
<path d="" fill="#FFFFFF" transform="translate(0,0)"/>
<path d="" fill="#FFFFFF" transform="translate(0,0)"/>
<path d="" fill="#FFFFFF" transform="translate(0,0)"/>
<path d="" fill="#FFFFFF" transform="translate(0,0)"/>
<path d="" fill="#FFFFFF" transform="translate(0,0)"/>
<path d="" fill="#FFFFFF" transform="translate(0,0)"/>
<path d="" fill="#FFFFFF" transform="translate(0,0)"/>
<path d="" fill="#FFFFFF" transform="translate(0,0)"/>
<path d="" fill="#FFFFFF" transform="translate(0,0)"/>
<path d="" fill="#FFFFFF" transform="translate(0,0)"/>
<path d="" fill="#FFFFFF" transform="translate(0,0)"/>
<path d="" fill="#FFFFFF" transform="translate(0,0)"/>
<path d="" fill="#FFFFFF" transform="translate(0,0)"/>
<path d="" fill="#FFFFFF" transform="translate(0,0)"/>
<path d="" fill="#FFFFFF" transform="translate(0,0)"/>
<path d="" fill="#FFFFFF" transform="translate(0,0)"/>
<path d="" fill="#FFFFFF" transform="translate(0,0)"/>
<path d="" fill="#FFFFFF" transform="translate(0,0)"/>
<path d="" fill="#FFFFFF" transform="translate(0,0)"/>
<path d="" fill="#FFFFFF" transform="translate(0,0)"/>
<path d="" fill="#FFFFFF" transform="translate(0,0)"/>
<path d="" fill="#FFFFFF" transform="translate(0,0)"/>
<path d="" fill="#FFFFFF" transform="translate(0,0)"/>
<path d="" fill="#FFFFFF" transform="translate(0,0)"/>
<path d="" fill="#FFFFFF" transform="translate(0,0)"/>
<path d="" fill="#FFFFFF" transform="translate(0,0)"/>
<path d="" fill="#FFFFFF" transform="translate(0,0)"/>
<path d="" fill="#FFFFFF" transform="translate(0,0)"/>
<path d="" fill="#FFFFFF" transform="translate(0,0)"/>
<path d="" fill="#FFFFFF" transform="translate(0,0)"/>
<path d="" fill="#FFFFFF" transform="translate(0,0)"/>
<path d="" fill="#FFFFFF" transform="translate(0,0)"/>
<path d="" fill="#FFFFFF" transform="translate(0,0)"/>
<path d="" fill="#FFFFFF" transform="translate(0,0)"/>
<path d="" fill="#FFFFFF" transform="translate(0,0)"/>
<path d="" fill="#FFFFFF" transform="translate(0,0)"/>
<path d="" fill="#FFFFFF" transform="translate(0,0)"/>
<path d="" fill="#FFFFFF" transform="translate(0,0)"/>
<path d="" fill="#FFFFFF" transform="translate(0,0)"/>
<path d="" fill="#FFFFFF" transform="translate(0,0)"/>
<path d="" fill="#FFFFFF" transform="translate(0,0)"/>
<path d="" fill="#FFFFFF" transform="translate(0,0)"/>
<path d="" fill="#FFFFFF" transform="translate(0,0)"/>
<path d="" fill="#FFFFFF" transform="translate(0,0)"/>
<path d="" fill="#FFFFFF" transform="translate(0,0)"/>
<path d="" fill="#FFFFFF" transform="translate(0,0)"/>
<path d="" fill="#FFFFFF" transform="translate(0,0)"/>
<path d="" fill="#FFFFFF" transform="translate(0,0)"/>
<path d="" fill="#FFFFFF" transform="translate(0,0)"/>
<path d="" fill="#FFFFFF" transform="translate(0,0)"/>
<path d="" fill="#FFFFFF" transform="translate(0,0)"/>
<path d="" fill="#FFFFFF" transform="translate(0,0)"/>
<path d="" fill="#FFFFFF" transform="translate(0,0)"/>
<path d="" fill="#FFFFFF" transform="translate(0,0)"/>
<path d="" fill="#FFFFFF" transform="translate(0,0)"/>
<path d="" fill="#FFFFFF" transform="translate(0,0)"/>
<path d="" fill="#FFFFFF" transform="translate(0,0)"/>
<path d="" fill="#FFFFFF" transform="translate(0,0)"/>
<path d="" fill="#FFFFFF" transform="translate(0,0)"/>
<path d="" fill="#FFFFFF" transform="translate(0,0)"/>
<path d="" fill="#FFFFFF" transform="translate(0,0)"/>
</svg>
